{"glyphs":{"0":{"ha":771,"x_min":0,"x_max":0,"o":"m 675 485 b 338 968 675 751 524 968 b 0 485 150 968 0 751 b 338 0 0 217 150 0 b 675 485 524 0 675 217 z m 108 503 b 326 958 108 749 182 958 b 565 464 467 958 565 744 b 347 10 565 219 492 10 b 108 503 207 10 108 228 z "},"1":{"ha":301,"x_min":0,"x_max":0,"o":"m 206 6 b 157 99 165 22 157 21 l 157 935 b 136 968 157 944 154 968 b 10 932 118 968 10 932 b 47 844 11 931 47 919 l 47 99 b 0 6 47 21 39 22 l 0 0 l 206 0 z "},"2":{"ha":768,"x_min":0,"x_max":0,"o":"m 674 144 b 508 110 674 144 642 110 l 190 110 b 674 735 374 261 674 536 b 353 968 674 919 492 968 b 0 849 171 968 0 849 l 86 753 b 379 958 86 753 215 958 b 564 769 469 958 564 897 b 43 10 564 431 124 72 l 43 0 l 615 0 z "},"3":{"ha":799,"x_min":0,"x_max":0,"o":"m 358 557 b 651 772 469 574 651 622 b 363 968 651 915 486 968 b 35 857 210 968 35 857 l 122 761 b 357 958 122 761 193 958 b 542 786 461 958 542 888 b 282 561 542 571 321 561 l 276 561 l 276 550 b 590 290 497 550 590 422 b 318 10 590 151 488 10 b 99 254 185 10 99 164 l 99 257 l 0 158 b 315 0 0 158 60 0 b 703 283 565 0 703 142 b 358 557 703 408 594 533 z "},"4":{"ha":831,"x_min":0,"x_max":0,"o":"m 735 388 b 576 353 735 388 704 354 l 576 968 l 565 968 l 0 253 l 0 243 l 468 243 l 468 99 b 419 6 468 21 458 22 l 419 0 l 625 0 l 625 6 b 576 99 586 22 576 21 l 576 243 l 676 243 z m 468 353 l 90 353 l 468 829 z "},"5":{"ha":801,"x_min":0,"x_max":0,"o":"m 646 849 l 704 993 b 539 958 704 993 672 958 l 183 958 l 108 536 l 118 533 b 347 607 119 536 213 607 b 593 319 513 607 593 465 b 331 10 593 167 504 10 b 99 267 192 10 99 171 l 0 168 b 328 0 0 168 63 0 b 704 307 585 0 704 153 b 351 618 704 463 582 618 b 121 549 228 618 147 569 l 174 849 z "},"6":{"ha":829,"x_min":0,"x_max":0,"o":"m 367 0 b 733 313 567 0 733 140 b 367 625 733 486 567 625 b 140 557 281 625 203 600 b 524 958 163 685 278 935 l 524 968 b 0 361 236 943 0 668 b 367 0 0 243 57 0 z m 357 615 b 624 300 490 615 624 492 b 376 10 624 144 525 10 b 110 325 242 10 110 139 b 357 615 110 482 210 615 z "},"7":{"ha":743,"x_min":0,"x_max":0,"o":"m 197 0 l 647 968 l 58 968 l 0 824 b 167 858 0 824 32 858 l 586 858 l 186 0 z "},"8":{"ha":804,"x_min":0,"x_max":0,"o":"m 710 279 b 407 556 710 421 578 536 b 635 760 536 574 635 658 b 356 968 635 875 510 968 b 75 760 200 968 75 875 b 304 556 75 658 174 574 b 0 279 132 536 0 421 b 356 0 0 125 158 0 b 710 279 551 0 710 125 z m 185 768 b 347 961 185 872 236 961 b 526 751 449 961 526 879 b 363 558 526 647 474 558 b 185 768 261 558 185 643 z m 364 10 b 108 290 235 10 108 115 b 346 550 108 431 200 550 b 600 268 474 550 600 440 b 364 10 600 129 507 10 z "},"9":{"ha":828,"x_min":0,"x_max":0,"o":"m 210 0 b 732 607 496 25 732 301 b 367 968 732 725 676 968 b 0 656 165 968 0 828 b 367 343 0 483 165 343 b 592 411 451 343 531 368 b 210 10 569 285 456 33 z m 376 353 b 110 669 243 353 110 476 b 357 958 110 825 207 958 b 622 643 490 958 622 829 b 376 353 622 486 522 353 z "}," ":{"ha":347,"x_min":0,"x_max":0,"o":""},"!":{"ha":200,"x_min":0,"x_max":0,"o":"m 54 149 b 110 886 69 149 110 826 b 54 968 110 935 85 968 b 0 886 24 968 0 931 b 54 149 0 825 40 149 z m 6 50 b 54 0 6 22 28 0 b 103 50 82 0 103 22 b 54 99 103 76 82 99 b 6 50 28 99 6 76 z "},"\"":{"ha":292,"x_min":0,"x_max":0,"o":"m 44 835 b 89 924 57 835 89 885 b 44 968 89 956 69 968 b 0 924 21 968 0 953 b 44 835 0 883 33 835 z m 115 924 b 160 835 115 883 149 835 b 204 924 172 835 204 885 b 160 968 204 956 183 968 b 115 924 135 968 115 953 z "},"#":{"ha":957,"x_min":0,"x_max":0,"o":"m 531 324 l 460 0 l 496 0 l 568 324 l 796 324 l 804 360 l 575 360 l 631 610 l 858 610 l 867 646 l 639 646 l 708 968 l 672 968 l 601 646 l 336 646 l 407 968 l 371 968 l 300 646 l 71 646 l 63 610 l 292 610 l 238 360 l 8 360 l 0 324 l 229 324 l 158 0 l 194 0 l 267 324 z m 329 610 l 594 610 l 539 360 l 274 360 z "},"$":{"ha":847,"x_min":0,"x_max":0,"o":"m 383 -85 l 383 1 l 414 1 b 757 235 568 1 757 50 b 383 546 757 388 560 464 l 383 950 b 640 754 532 910 640 754 l 738 850 b 383 968 738 850 571 954 l 383 1054 l 374 1054 l 374 968 b 344 969 364 969 354 969 b 0 736 190 969 0 921 b 374 426 0 582 197 508 l 374 21 b 117 217 231 61 117 217 l 21 121 b 374 3 21 121 186 17 l 374 -85 z m 383 422 b 647 167 524 357 647 286 l 647 165 b 442 11 647 72 542 11 b 383 18 422 11 403 14 z m 110 804 b 315 960 110 897 215 960 b 374 953 336 960 356 957 l 374 551 b 110 804 235 617 110 688 z "},"%":{"ha":789,"x_min":0,"x_max":0,"o":"m 476 968 l 439 968 l 226 0 l 264 0 z m 153 949 b 0 772 68 949 0 869 b 153 596 0 675 68 596 b 306 772 238 596 306 675 b 153 949 306 869 238 949 z m 157 606 b 75 779 103 606 75 692 b 149 939 75 868 104 939 b 231 764 203 939 231 860 b 157 606 231 675 203 606 z m 544 21 b 697 197 628 21 697 100 b 544 374 697 294 628 374 b 392 197 460 374 392 294 b 544 21 392 100 460 21 z m 540 364 b 621 189 594 364 621 285 b 549 31 621 100 593 31 b 467 204 493 31 467 117 b 540 364 467 293 496 364 z "},"&":{"ha":960,"x_min":0,"x_max":0,"o":"m 871 575 b 682 710 871 703 718 710 l 675 710 l 674 619 b 792 639 674 619 739 639 b 860 597 828 639 860 629 b 308 268 860 485 308 508 b 497 133 308 140 461 133 l 506 133 l 506 224 b 389 204 506 224 442 204 b 321 246 351 204 321 214 b 621 397 321 314 475 350 b 674 256 644 371 674 324 b 383 10 674 178 604 10 b 111 290 215 10 111 151 b 425 550 111 422 206 550 l 426 561 l 421 561 b 161 788 381 561 161 571 b 346 958 161 889 242 958 b 515 788 510 958 515 788 l 607 867 b 340 968 607 867 536 968 b 50 772 217 968 50 904 b 343 557 50 622 233 574 b 0 283 108 533 0 408 b 388 0 0 142 138 0 b 732 271 633 0 732 168 b 688 421 732 333 708 385 b 871 575 789 458 871 504 z "},"'":{"ha":179,"x_min":0,"x_max":0,"o":"m 0 924 b 44 835 0 883 32 835 b 88 924 56 835 88 885 b 44 968 88 956 68 968 b 0 924 19 968 0 953 z "},"(":{"ha":326,"x_min":0,"x_max":0,"o":"m 238 968 b 0 485 238 968 0 806 b 238 0 0 158 238 0 l 238 10 b 111 485 238 10 111 158 b 238 958 111 811 238 958 z "},")":{"ha":326,"x_min":0,"x_max":0,"o":"m 236 485 b 0 968 236 810 0 968 l 0 958 b 126 485 0 958 126 811 b 0 10 126 158 0 10 l 0 0 b 236 485 0 0 236 163 z "},"*":{"ha":267,"x_min":0,"x_max":0,"o":"m 175 921 b 158 929 171 926 165 929 b 132 921 151 929 143 926 b 106 899 124 915 114 907 b 111 932 108 910 111 922 b 89 968 111 958 101 968 b 67 932 76 968 67 956 b 71 899 67 922 68 910 b 46 921 64 907 54 915 b 19 931 35 928 26 931 b 3 921 13 931 7 926 b 1 913 1 918 1 915 b 22 883 1 904 7 893 b 58 868 33 876 46 871 b 22 853 46 864 33 860 b 0 824 7 843 0 833 b 3 814 0 821 1 817 b 19 806 6 808 11 806 b 44 814 26 806 35 808 b 71 836 54 821 64 828 b 67 803 68 825 67 814 b 89 767 67 778 76 767 b 111 803 101 767 111 779 b 106 836 111 814 108 825 b 132 814 114 828 122 819 b 157 804 142 807 150 804 b 174 814 165 804 171 808 b 176 824 175 817 176 819 b 156 851 176 832 169 842 b 118 867 144 858 131 864 b 156 882 131 871 144 876 b 176 913 171 892 176 903 b 175 921 176 915 176 918 z "},"+":{"ha":394,"x_min":0,"x_max":0,"o":"m 169 333 l 169 467 l 303 467 l 303 503 l 169 503 l 169 638 l 133 638 l 133 503 l 0 503 l 0 467 l 133 467 l 133 333 z "},",":{"ha":189,"x_min":0,"x_max":0,"o":"m 67 -50 b 99 44 99 -4 99 38 b 49 96 97 75 76 96 b 0 47 22 96 0 74 b 49 -3 0 19 22 -3 b 61 -1 53 -3 57 -1 l 64 -1 b 71 -11 69 -1 71 -6 b 61 -47 71 -25 61 -47 z "},"-":{"ha":393,"x_min":0,"x_max":0,"o":"m 0 467 l 303 467 l 303 503 l 0 503 z "},".":{"ha":186,"x_min":0,"x_max":0,"o":"m 0 50 b 49 0 0 22 22 0 b 97 50 76 0 97 22 b 49 99 97 76 76 99 b 0 50 22 99 0 76 z "},"/":{"ha":433,"x_min":0,"x_max":0,"o":"m 396 968 l 0 0 l 39 0 l 433 968 z "},":":{"ha":188,"x_min":0,"x_max":0,"o":"m 50 450 b 0 401 22 450 0 429 b 50 353 0 375 22 353 b 99 401 76 353 99 375 b 50 450 99 429 76 450 z m 50 274 b 0 225 22 274 0 251 b 50 175 0 197 22 175 b 99 225 76 175 99 197 b 50 274 99 251 76 274 z "},";":{"ha":189,"x_min":0,"x_max":0,"o":"m 49 353 b 97 401 76 353 97 375 b 49 450 97 429 76 450 b 0 401 22 450 0 429 b 49 353 0 375 22 353 z m 67 128 b 97 221 96 169 97 208 l 97 224 b 49 274 97 253 76 274 b 0 225 22 274 0 251 b 49 176 0 197 22 176 b 60 178 53 176 57 176 l 61 178 b 71 165 68 178 71 172 b 61 131 71 151 61 131 z "},"<":{"ha":290,"x_min":0,"x_max":0,"o":"m 201 649 l 0 507 l 0 464 l 201 322 l 201 365 l 31 485 l 201 604 z "},"=":{"ha":358,"x_min":0,"x_max":0,"o":"m 268 561 l 0 561 l 0 525 l 268 525 z m 0 410 l 268 410 l 268 444 l 0 444 z "},">":{"ha":290,"x_min":0,"x_max":0,"o":"m 200 507 l 0 649 l 0 604 l 169 485 l 0 365 l 0 322 l 200 464 z "},"?":{"ha":764,"x_min":0,"x_max":0,"o":"m 253 50 b 301 0 253 22 274 0 b 350 50 329 0 350 22 b 301 99 350 76 329 99 b 253 50 274 99 253 76 z m 353 968 b 0 850 171 968 0 850 l 86 753 b 379 958 86 753 215 958 b 564 769 469 958 564 899 b 297 149 564 518 297 351 l 307 149 b 674 735 307 340 674 536 b 353 968 674 921 492 968 z "},"@":{"ha":1036,"x_min":0,"x_max":0,"o":"m 583 753 l 583 667 b 450 753 563 711 522 753 b 256 493 321 753 256 624 b 467 225 256 360 324 225 b 585 339 529 225 565 285 b 722 225 590 269 653 225 b 946 533 856 225 946 390 b 479 969 946 750 824 969 b 0 485 232 969 0 771 b 497 0 0 272 147 0 b 658 49 571 0 621 25 l 653 57 b 511 10 625 38 571 10 b 110 499 344 10 110 163 b 525 958 110 769 336 958 b 874 524 708 958 874 815 b 765 251 874 368 828 251 b 696 368 699 251 696 322 l 696 753 z m 583 410 b 496 251 583 382 551 251 b 363 492 407 251 363 371 b 496 728 363 610 407 728 b 583 588 540 728 583 657 z "},"A":{"ha":975,"x_min":0,"x_max":0,"o":"m 150 8 b 96 63 135 11 96 21 b 103 96 96 71 97 82 l 188 308 l 594 308 l 690 68 b 694 53 693 63 694 57 b 651 8 694 31 671 15 l 651 0 l 879 0 l 879 8 l 878 8 b 796 103 872 8 832 13 b 451 968 704 332 526 779 l 440 968 b 99 113 440 968 171 293 b 0 8 57 10 3 8 l 0 0 l 150 0 z m 392 819 l 592 318 l 192 318 z "},"B":{"ha":814,"x_min":0,"x_max":0,"o":"m 717 244 b 436 489 717 379 594 489 b 644 724 557 518 644 613 b 354 968 644 860 521 968 l 0 968 l 0 963 b 47 869 39 947 47 947 l 47 99 b 0 6 47 21 39 21 l 0 0 l 435 0 b 717 244 593 0 717 110 z m 158 958 l 293 958 b 531 724 451 958 531 854 b 293 489 531 594 444 489 l 158 489 z m 158 10 l 158 479 l 360 479 b 608 244 508 479 608 374 b 360 10 608 115 513 10 z "},"C":{"ha":974,"x_min":0,"x_max":0,"o":"m 485 0 b 863 181 728 0 863 181 l 851 192 b 538 36 851 192 742 36 b 110 503 308 36 110 224 b 475 960 110 747 292 960 b 801 736 710 960 801 736 l 878 767 b 485 968 878 767 747 968 b 0 485 217 968 0 751 b 485 0 0 217 217 0 z "},"D":{"ha":867,"x_min":0,"x_max":0,"o":"m 772 485 b 268 968 772 751 575 968 l 0 968 l 0 963 b 49 869 39 947 49 947 l 49 99 b 0 6 49 21 39 21 l 0 0 l 268 0 b 772 485 583 0 772 217 z m 158 10 l 158 960 l 254 960 b 663 485 493 960 663 746 b 254 10 663 222 507 10 z "},"E":{"ha":800,"x_min":0,"x_max":0,"o":"m 704 147 b 425 10 704 147 582 10 l 157 10 l 157 479 l 447 479 b 540 401 525 479 525 440 l 546 401 l 546 567 l 540 567 b 447 489 525 528 525 489 l 157 489 l 157 960 l 431 960 b 683 850 564 960 683 850 l 656 968 l 0 968 l 0 963 b 47 869 39 947 47 947 l 47 99 b 0 6 47 21 39 21 l 0 0 l 656 0 z "},"F":{"ha":643,"x_min":0,"x_max":0,"o":"m 657 968 l 0 968 l 0 963 b 49 869 39 947 49 947 l 49 99 b 0 6 49 21 39 21 l 0 0 l 206 0 l 206 6 b 158 99 167 21 158 21 l 158 479 l 449 479 b 542 401 526 479 525 440 l 547 401 l 547 567 l 542 567 b 449 489 525 528 526 489 l 158 489 l 158 960 l 431 960 b 685 850 564 960 685 850 z "},"G":{"ha":1063,"x_min":0,"x_max":0,"o":"m 761 408 b 808 315 800 393 808 393 l 808 144 b 536 36 808 144 699 36 b 110 503 307 36 110 224 b 475 960 110 747 290 960 b 801 736 708 960 801 736 l 876 767 b 483 968 876 767 747 968 b 0 485 217 968 0 751 b 483 0 0 217 217 0 b 853 131 667 0 782 131 b 910 56 890 131 910 76 l 918 56 l 918 315 b 967 408 918 393 926 393 l 967 414 l 761 414 z "},"H":{"ha":872,"x_min":0,"x_max":0,"o":"m 618 489 l 158 489 l 158 869 b 206 963 158 947 167 947 l 206 968 l 0 968 l 0 963 b 49 869 39 947 49 947 l 49 99 b 0 6 49 21 39 21 l 0 0 l 206 0 l 206 6 b 158 99 167 21 158 21 l 158 479 l 618 479 l 618 99 b 571 6 618 21 610 21 l 571 0 l 776 0 l 776 6 b 728 99 736 21 728 21 l 728 869 b 776 963 728 947 736 947 l 776 968 l 571 968 l 571 963 b 618 869 610 947 618 947 z "},"I":{"ha":300,"x_min":0,"x_max":0,"o":"m 206 6 b 158 99 167 21 158 21 l 158 869 b 206 963 158 947 167 947 l 206 968 l 0 968 l 0 963 b 49 869 40 947 49 947 l 49 99 b 0 6 49 21 40 21 l 0 0 l 206 0 z "},"J":{"ha":628,"x_min":0,"x_max":0,"o":"m 326 963 b 374 869 365 947 374 947 l 374 232 b 240 10 374 75 318 10 b 69 135 146 10 69 135 l 0 72 b 243 0 0 72 119 0 b 483 249 361 0 483 75 l 483 869 b 532 963 483 947 492 947 l 532 968 l 326 968 z "},"K":{"ha":833,"x_min":0,"x_max":0,"o":"m 263 546 l 226 508 l 158 436 l 158 869 b 206 963 158 947 167 947 l 206 968 l 0 968 l 0 963 b 49 869 40 947 49 947 l 49 99 b 0 6 49 21 40 21 l 0 0 l 206 0 l 206 6 b 158 99 167 21 158 21 l 158 422 b 232 500 168 432 196 461 b 508 86 367 299 508 86 b 519 54 517 74 519 64 b 478 8 519 28 493 14 l 478 0 l 738 0 l 738 8 b 606 142 733 8 697 13 b 310 579 561 204 428 403 b 599 879 419 694 556 836 b 719 960 671 954 719 960 l 719 968 l 572 968 l 572 960 b 611 926 585 958 611 947 b 593 890 611 917 606 904 z "},"L":{"ha":781,"x_min":0,"x_max":0,"o":"m 685 118 b 431 10 685 118 564 10 l 158 10 l 158 869 b 206 963 158 947 167 947 l 206 968 l 0 968 l 0 963 b 47 869 39 947 47 947 l 47 99 b 0 6 47 21 39 21 l 0 0 l 657 0 z "},"M":{"ha":1081,"x_min":0,"x_max":0,"o":"m 478 0 l 528 133 l 828 942 l 828 99 b 779 6 828 21 818 21 l 779 0 l 985 0 l 985 6 b 938 99 946 21 938 21 l 938 869 b 985 963 938 947 946 947 l 985 968 l 828 968 l 522 146 l 168 968 l 0 968 l 0 963 b 78 869 39 947 78 947 l 78 99 b 0 6 78 21 39 21 l 0 0 l 165 0 l 165 6 b 88 99 126 21 88 21 l 88 878 l 465 0 z "},"N":{"ha":900,"x_min":0,"x_max":0,"o":"m 717 192 l 171 968 l 0 968 l 0 963 b 78 869 39 947 78 947 l 78 99 b 0 6 78 21 39 21 l 0 0 l 165 0 l 165 6 b 88 99 126 21 88 21 l 88 896 l 717 0 l 726 0 l 726 869 b 804 963 726 947 765 947 l 804 968 l 639 968 l 639 963 b 717 869 678 947 717 947 z "},"O":{"ha":1065,"x_min":0,"x_max":0,"o":"m 968 483 b 483 968 968 751 751 968 b 0 483 217 968 0 751 b 483 0 0 217 217 0 b 968 483 751 0 968 217 z m 499 8 b 110 503 297 8 110 226 b 468 958 110 749 261 958 b 858 463 669 958 858 744 b 499 8 858 218 704 8 z "},"P":{"ha":813,"x_min":0,"x_max":0,"o":"m 0 0 l 206 0 l 206 6 b 157 99 167 21 157 21 l 157 410 l 356 410 b 717 689 515 410 717 479 b 356 968 717 889 517 968 l 0 968 l 0 963 b 47 869 39 947 47 947 l 47 99 b 0 6 47 21 39 21 z m 157 958 l 322 958 b 608 689 515 958 608 840 b 322 419 608 531 515 419 l 157 419 z "},"Q":{"ha":1065,"x_min":0,"x_max":0,"o":"m 506 0 b 942 -175 711 -11 769 -175 b 1093 -71 1068 -175 1093 -71 l 1090 -69 b 982 -119 1090 -69 1064 -119 b 561 6 840 -119 776 -15 b 969 485 792 43 969 243 b 485 968 969 751 751 968 b 0 485 217 968 0 751 b 485 0 0 217 217 0 z m 469 960 b 860 464 671 960 860 744 b 499 10 860 219 706 10 b 110 503 297 10 110 226 b 469 960 110 750 261 960 z "},"R":{"ha":876,"x_min":0,"x_max":0,"o":"m 0 0 l 207 0 l 207 6 b 158 99 167 21 158 21 l 158 410 l 292 410 b 558 38 368 410 558 38 b 563 25 561 33 563 29 b 532 7 563 13 546 11 l 532 0 l 782 0 l 782 7 l 778 7 b 644 108 763 7 699 13 b 433 415 583 218 486 401 b 717 689 575 435 717 513 b 357 968 717 889 517 968 l 0 968 l 0 963 b 49 869 40 947 49 947 l 49 99 b 0 6 49 21 40 21 z m 158 958 l 322 958 b 608 689 517 958 608 840 b 322 419 608 531 517 419 l 158 419 z "},"S":{"ha":854,"x_min":0,"x_max":0,"o":"m 758 233 b 110 803 758 511 110 536 b 315 960 110 897 215 960 b 642 753 499 960 642 753 l 738 850 b 344 968 738 850 547 968 b 0 735 190 968 0 921 b 649 165 0 456 647 440 b 443 10 649 72 543 10 b 117 215 267 10 117 215 l 21 119 b 414 0 21 119 211 0 b 758 233 568 0 758 49 z "},"T":{"ha":731,"x_min":0,"x_max":0,"o":"m 396 958 l 396 99 b 349 6 396 21 388 21 l 349 0 l 554 0 l 554 6 b 506 99 514 21 506 21 l 506 958 l 647 958 b 901 850 782 958 901 850 l 874 968 l 28 968 l 0 850 b 254 958 0 850 121 958 z "},"U":{"ha":894,"x_min":0,"x_max":0,"o":"m 799 968 l 633 968 l 633 963 b 711 869 672 947 711 947 l 711 308 b 407 10 711 108 564 10 b 158 314 306 10 158 61 l 158 869 b 206 963 158 947 167 947 l 206 968 l 0 968 l 0 963 b 49 869 39 947 49 947 l 49 318 b 407 0 49 61 258 0 b 721 308 561 0 721 94 l 721 869 b 799 963 721 947 760 947 z "},"V":{"ha":975,"x_min":0,"x_max":0,"o":"m 879 968 l 729 968 l 729 960 b 783 906 744 957 783 947 b 776 872 783 897 782 886 l 488 149 l 190 900 b 186 917 188 906 186 911 b 228 960 186 939 210 953 l 228 968 l 0 968 l 0 960 l 1 960 b 85 865 8 960 49 956 b 429 0 176 638 354 189 l 439 0 b 782 856 439 0 708 675 b 879 960 822 957 874 960 z "},"W":{"ha":1393,"x_min":0,"x_max":0,"o":"m 906 149 l 703 660 b 781 856 732 733 760 801 b 879 960 821 957 874 960 l 879 968 l 729 968 l 729 960 b 783 906 744 957 783 947 b 776 872 783 897 782 886 l 697 674 l 607 900 b 603 917 604 906 603 911 b 644 960 603 939 626 953 l 644 968 l 417 968 l 417 960 l 418 960 b 501 865 425 960 465 956 b 638 525 538 776 586 653 l 488 149 l 189 900 b 185 917 186 906 185 911 b 228 960 185 939 208 953 l 228 968 l 0 968 l 0 960 l 1 960 b 83 865 8 960 49 956 b 428 0 175 638 353 189 l 439 0 b 643 511 439 0 590 381 b 846 0 721 317 801 113 l 856 0 b 1199 856 856 0 1126 675 b 1297 960 1239 957 1292 960 l 1297 968 l 1147 968 l 1147 960 b 1200 906 1161 957 1200 947 b 1193 872 1200 897 1199 886 z "},"X":{"ha":947,"x_min":0,"x_max":0,"o":"m 147 8 b 111 40 135 10 111 18 b 126 79 111 50 115 63 l 382 447 b 624 86 506 264 624 86 b 635 54 632 74 635 64 b 593 8 635 28 608 14 l 593 0 l 853 0 l 853 8 b 721 142 849 8 813 13 b 472 508 683 196 576 353 b 732 879 526 585 678 803 b 853 960 778 946 853 960 l 853 968 l 706 968 l 706 960 b 742 928 718 958 742 950 b 726 890 742 918 738 906 l 467 517 b 221 882 342 701 221 882 b 210 914 213 894 210 904 b 253 960 210 939 236 954 l 253 968 l 0 968 l 0 960 l 1 960 b 125 828 6 960 36 954 b 376 456 164 774 271 614 b 121 89 321 375 174 165 b 0 8 74 22 0 8 l 0 0 l 147 0 z "},"Y":{"ha":1015,"x_min":0,"x_max":0,"o":"m 126 828 b 396 428 165 771 285 594 l 396 99 b 347 6 396 21 388 21 l 347 0 l 553 0 l 553 6 b 506 99 514 21 506 21 l 506 457 b 800 879 540 506 739 793 b 921 960 847 946 921 960 l 921 968 l 774 968 l 774 960 b 810 928 786 958 810 950 b 794 890 810 918 806 906 l 500 465 b 221 882 365 667 221 882 b 210 914 213 894 210 904 b 253 960 210 939 236 954 l 253 968 l 0 968 l 0 960 l 1 960 b 126 828 6 960 36 954 z "},"Z":{"ha":868,"x_min":0,"x_max":0,"o":"m 767 118 b 513 10 767 118 646 10 l 133 10 l 772 960 l 772 968 l 38 968 l 10 850 b 263 958 10 850 129 958 l 642 958 l 0 10 l 0 0 l 739 0 z "},"[":{"ha":268,"x_min":0,"x_max":0,"o":"m 178 958 l 178 968 l 0 968 l 0 0 l 178 0 l 178 10 l 110 10 l 110 958 z "},"\\":{"ha":433,"x_min":0,"x_max":0,"o":"m 39 968 l 0 968 l 396 0 l 433 0 z "},"]":{"ha":267,"x_min":0,"x_max":0,"o":"m 0 10 l 0 0 l 178 0 l 178 968 l 0 968 l 0 958 l 68 958 l 68 10 z "},"^":{"ha":269,"x_min":0,"x_max":0,"o":"m 90 917 l 144 883 l 181 883 l 114 968 l 67 968 l 0 883 l 36 883 z "},"_":{"ha":393,"x_min":0,"x_max":0,"o":"m 0 0 l 303 0 l 303 36 l 0 36 z "},"`":{"ha":201,"x_min":0,"x_max":0,"o":"m 111 881 l 78 967 l 0 967 l 81 881 z "},"a":{"ha":629,"x_min":0,"x_max":0,"o":"m 496 376 b 281 625 496 550 386 625 b 64 551 228 625 64 551 l 126 490 b 279 614 126 490 194 614 b 397 431 342 614 389 560 b 0 158 292 319 0 336 b 200 0 0 58 106 0 b 397 86 318 0 375 56 l 397 33 b 418 0 397 24 400 0 b 533 36 436 0 533 36 b 496 124 532 38 496 49 z m 397 99 b 242 17 374 67 318 17 b 99 178 165 17 99 76 b 233 333 99 257 161 306 b 397 419 290 356 353 375 z "},"b":{"ha":725,"x_min":0,"x_max":0,"o":"m 317 625 b 146 549 221 625 164 569 l 146 936 b 125 968 146 944 143 968 b 10 932 107 968 10 932 b 49 844 11 931 49 919 l 49 100 b 0 7 49 22 39 22 l 0 1 l 146 1 l 146 60 b 317 0 165 43 228 0 b 629 313 489 0 629 140 b 317 625 629 485 489 625 z m 325 10 b 146 100 246 10 185 35 l 146 535 b 308 615 164 557 221 615 b 531 299 422 615 531 478 b 325 10 531 143 443 10 z "},"c":{"ha":665,"x_min":0,"x_max":0,"o":"m 346 24 b 97 325 199 24 97 149 b 303 615 97 481 185 615 b 492 465 379 615 451 556 l 565 494 b 313 625 508 574 417 625 b 0 313 139 625 0 485 b 313 0 0 140 139 0 b 569 135 485 0 568 133 l 560 140 b 346 24 550 122 481 24 z "},"d":{"ha":715,"x_min":0,"x_max":0,"o":"m 582 935 b 561 967 582 943 579 967 b 446 931 543 967 446 931 b 483 843 447 929 483 918 l 483 565 b 313 625 464 581 401 625 b 0 313 140 625 0 485 b 313 0 0 140 140 0 b 483 76 408 0 465 56 l 483 33 b 504 0 483 24 486 0 b 619 36 522 0 619 36 b 582 124 618 38 582 49 z m 483 90 b 321 10 465 68 408 10 b 99 325 206 10 99 146 b 304 615 99 481 186 615 b 483 524 383 615 444 589 z "},"e":{"ha":700,"x_min":0,"x_max":0,"o":"m 603 426 b 311 625 557 543 443 625 b 0 313 139 625 0 485 b 311 0 0 140 139 0 b 593 176 519 0 592 175 l 583 179 b 346 24 583 179 514 24 b 108 229 226 24 138 106 l 515 392 z m 107 239 b 97 325 101 265 97 294 b 303 615 97 481 183 615 b 514 401 394 615 482 528 z "},"f":{"ha":393,"x_min":0,"x_max":0,"o":"m 315 957 b 468 832 400 957 468 832 l 531 894 b 314 967 531 894 424 967 b 99 719 208 967 99 892 l 99 625 l 0 625 l 0 615 l 99 615 l 99 99 b 51 6 99 21 90 21 l 51 0 l 244 0 l 244 6 b 197 99 206 21 197 21 l 197 615 l 296 615 l 296 625 l 197 625 l 197 736 b 315 957 197 892 247 957 z "},"g":{"ha":708,"x_min":0,"x_max":0,"o":"m 60 72 b 111 140 60 118 111 140 b 308 74 164 99 232 74 b 610 349 475 74 610 197 b 482 574 610 442 560 524 b 594 617 494 592 524 617 l 563 692 b 475 579 522 692 481 614 b 308 625 428 607 369 625 b 6 349 142 625 6 501 b 101 149 6 271 43 199 b 8 26 101 149 8 114 b 579 -200 8 -162 579 -74 b 332 -332 579 -279 457 -332 b 78 -167 129 -332 78 -226 b 96 -128 78 -144 86 -128 l 97 -119 b 0 -200 74 -119 0 -140 b 325 -343 0 -253 92 -343 b 632 -167 500 -343 632 -264 b 60 72 632 46 60 -51 z m 300 615 b 513 338 410 615 513 496 b 315 82 513 200 428 82 b 104 360 206 82 104 204 b 300 615 104 499 186 615 z "},"h":{"ha":685,"x_min":0,"x_max":0,"o":"m 542 376 b 319 625 542 563 431 625 b 146 531 221 625 147 532 l 146 935 b 126 967 146 943 143 967 b 10 931 108 967 10 931 b 49 843 11 929 49 918 l 49 99 b 0 6 49 21 40 21 l 0 0 l 194 0 l 194 6 b 146 99 156 21 146 21 l 146 517 b 319 615 147 518 219 615 b 443 393 401 615 443 550 l 443 99 b 396 6 443 21 435 21 l 396 0 l 589 0 l 589 6 b 542 99 550 21 542 21 z "},"i":{"ha":290,"x_min":0,"x_max":0,"o":"m 194 6 b 146 99 156 21 146 21 l 146 592 b 126 625 146 601 144 625 b 10 589 108 625 10 589 b 49 501 11 586 49 576 l 49 99 b 0 6 49 21 40 21 l 0 0 l 194 0 z m 97 701 b 146 751 125 701 146 724 b 97 800 146 778 125 800 b 49 751 71 800 49 778 b 97 701 49 724 71 701 z "},"j":{"ha":233,"x_min":0,"x_max":0,"o":"m 117 625 b 1 589 99 625 1 589 b 39 501 3 586 39 576 l 39 -111 b -79 -332 39 -267 -11 -332 b -232 -207 -164 -332 -232 -207 l -294 -269 b -78 -343 -294 -269 -187 -343 b 138 -94 29 -343 138 -268 l 138 592 b 117 625 138 601 135 625 z m 89 800 b 39 751 61 800 39 778 b 89 701 39 724 61 701 b 138 751 115 701 138 724 b 89 800 138 778 115 800 z "},"k":{"ha":694,"x_min":0,"x_max":0,"o":"m 433 619 b 476 585 444 615 476 604 b 458 558 476 578 471 568 l 146 322 l 146 935 b 125 967 146 943 143 967 b 10 931 107 967 10 931 b 47 843 11 929 47 918 l 47 99 b 0 6 47 21 39 21 l 0 0 l 193 0 l 193 6 b 146 99 154 21 146 21 l 146 308 b 190 343 154 315 171 326 l 401 32 b 406 21 404 28 406 24 b 379 6 406 11 390 10 l 379 0 l 596 0 l 596 6 b 481 92 596 6 540 6 b 268 403 413 188 283 379 b 461 547 332 451 407 508 b 596 619 554 614 596 619 l 596 625 l 433 625 z "},"l":{"ha":290,"x_min":0,"x_max":0,"o":"m 194 6 b 146 99 154 21 146 21 l 146 936 b 125 968 146 944 143 968 b 10 932 107 968 10 932 b 47 844 11 931 47 919 l 47 99 b 0 6 47 21 39 21 l 0 0 l 194 0 z "},"m":{"ha":1079,"x_min":0,"x_max":0,"o":"m 935 376 b 713 625 935 563 824 625 b 518 504 608 625 528 518 b 318 625 479 592 399 625 b 146 531 221 625 147 532 l 146 592 b 125 625 146 601 143 625 b 10 589 108 625 10 589 b 49 501 11 586 49 576 l 49 99 b 0 6 49 21 40 21 l 0 0 l 194 0 l 194 6 b 146 99 154 21 146 21 l 146 517 b 319 615 147 518 219 615 b 443 393 401 615 443 550 l 443 99 b 394 6 443 21 435 21 l 394 0 l 589 0 l 589 6 b 540 99 550 21 540 21 l 540 376 b 522 494 540 424 533 461 b 714 615 536 514 614 615 b 838 393 796 615 838 550 l 838 99 b 789 6 838 21 829 21 l 789 0 l 983 0 l 983 6 b 935 99 943 21 935 21 z "},"n":{"ha":685,"x_min":0,"x_max":0,"o":"m 540 376 b 318 625 540 563 429 625 b 146 531 221 625 146 532 l 146 592 b 125 625 146 601 143 625 b 8 589 107 625 8 589 b 47 501 11 586 47 576 l 47 99 b 0 6 47 21 39 21 l 0 0 l 193 0 l 193 6 b 146 99 154 21 146 21 l 146 517 b 318 615 146 518 218 615 b 442 393 400 615 442 550 l 442 99 b 394 6 442 21 433 21 l 394 0 l 588 0 l 588 6 b 540 99 549 21 540 21 z "},"o":{"ha":721,"x_min":0,"x_max":0,"o":"m 313 625 b 0 313 140 625 0 485 b 313 0 0 140 140 0 b 625 313 485 0 625 140 b 313 625 625 485 485 625 z m 321 10 b 99 325 206 10 99 149 b 304 615 99 481 185 615 b 526 299 419 615 526 478 b 321 10 526 143 439 10 z "},"p":{"ha":725,"x_min":0,"x_max":0,"o":"m 315 624 b 146 547 221 624 165 569 l 146 592 b 125 625 146 601 143 625 b 10 589 107 625 10 589 b 47 501 11 586 47 576 l 47 -243 b 0 -337 47 -321 39 -321 l 0 -343 l 193 -343 l 193 -337 b 146 -243 154 -321 146 -322 l 146 57 b 315 -1 167 42 228 -1 b 628 311 488 -1 628 139 b 315 624 628 483 488 624 z m 324 8 b 146 97 246 8 185 33 l 146 535 b 307 614 165 557 221 614 b 529 297 422 614 529 476 b 324 8 529 142 442 8 z "},"q":{"ha":729,"x_min":0,"x_max":0,"o":"m 583 592 b 563 625 583 601 581 625 b 447 589 546 625 454 590 b 313 625 417 606 369 625 b 0 313 140 625 0 485 b 313 0 0 140 140 0 b 486 79 413 0 471 61 l 486 -243 b 438 -337 486 -321 476 -321 l 438 -343 l 632 -343 l 632 -337 b 583 -243 592 -321 583 -322 z m 486 93 b 321 10 471 74 413 10 b 99 325 206 10 99 146 b 304 615 99 481 186 615 b 485 521 383 615 446 589 b 486 501 485 515 486 508 z "},"r":{"ha":639,"x_min":0,"x_max":0,"o":"m 146 592 b 126 625 146 601 143 625 b 10 589 108 625 10 589 b 49 501 11 586 49 576 l 49 99 b 0 6 49 21 40 21 l 0 0 l 194 0 l 194 6 b 146 99 154 21 146 21 l 146 393 b 351 558 146 393 274 558 b 472 500 408 558 472 500 l 543 569 b 410 625 543 569 488 625 b 146 407 321 625 146 407 z "},"s":{"ha":585,"x_min":0,"x_max":0,"o":"m 94 518 b 204 615 94 578 139 615 b 414 486 322 615 414 486 l 476 547 b 222 625 476 547 354 625 b 0 474 124 625 0 593 b 396 107 0 294 396 261 b 286 10 396 46 350 10 b 76 139 172 10 76 139 l 14 76 b 268 0 14 76 136 0 b 489 150 367 0 489 31 b 94 518 489 331 94 363 z "},"t":{"ha":422,"x_min":0,"x_max":0,"o":"m 256 8 b 136 229 186 8 136 61 l 136 615 l 276 615 l 276 625 l 136 625 l 136 699 b 117 731 136 707 133 731 b 0 625 103 731 97 721 l 0 615 l 39 615 l 39 247 b 254 -1 39 53 147 -1 b 326 24 293 -1 326 24 l 319 31 b 256 8 319 31 292 8 z "},"u":{"ha":664,"x_min":0,"x_max":0,"o":"m 531 592 b 510 625 531 601 528 625 b 394 589 492 625 394 589 b 432 501 396 586 432 576 l 432 107 b 260 10 424 94 354 10 b 136 231 178 10 136 75 l 136 592 b 115 625 136 601 133 625 b 0 589 97 625 0 589 b 39 501 1 586 39 576 l 39 249 b 261 0 39 63 149 0 b 432 93 353 0 424 82 l 432 33 b 453 0 432 24 435 0 b 568 36 471 0 568 36 b 531 124 567 38 531 49 z "},"v":{"ha":678,"x_min":0,"x_max":0,"o":"m 479 619 b 514 583 490 615 514 607 b 511 567 514 578 514 572 l 338 132 l 164 569 b 161 586 161 576 161 582 b 194 619 161 608 182 615 l 194 625 l 0 625 l 0 619 l 1 619 b 74 529 8 619 40 614 b 285 0 133 382 236 122 l 296 0 b 507 529 296 0 463 419 b 579 619 542 614 572 619 l 581 619 l 581 625 l 479 625 z "},"w":{"ha":975,"x_min":0,"x_max":0,"o":"m 779 619 b 815 585 792 615 815 607 b 811 567 815 579 814 574 l 638 132 l 465 569 b 463 586 463 576 463 582 b 496 619 463 608 483 615 l 496 625 l 301 625 l 301 619 l 303 619 b 375 529 310 619 340 614 b 435 378 392 486 413 433 l 338 132 l 164 569 b 161 586 161 576 161 582 b 194 619 161 608 182 615 l 194 625 l 0 625 l 0 619 l 1 619 b 74 529 8 619 40 614 b 285 0 133 382 236 122 l 296 0 b 440 364 296 0 407 282 b 585 0 493 232 553 83 l 596 0 b 807 529 596 0 763 419 b 879 619 842 614 872 619 l 881 619 l 881 625 l 779 625 z "},"x":{"ha":679,"x_min":0,"x_max":0,"o":"m 472 619 b 500 583 482 615 500 600 b 493 565 500 578 499 571 l 319 353 b 174 569 244 465 174 569 b 167 589 168 576 167 583 b 194 619 167 606 185 615 l 194 625 l 0 625 l 0 619 b 81 533 3 619 24 617 b 256 275 107 497 183 383 b 106 92 210 218 125 113 b 3 6 31 7 3 6 l 3 0 l 113 0 l 113 6 b 83 42 101 10 83 24 b 90 60 83 47 85 54 l 261 267 b 403 56 335 157 403 56 b 410 36 408 47 410 42 b 382 6 410 18 392 10 l 382 0 l 582 0 l 582 6 b 496 92 579 6 556 8 b 325 344 471 128 396 239 b 478 533 369 400 458 511 b 582 619 554 618 582 619 l 582 625 l 472 625 z "},"y":{"ha":675,"x_min":0,"x_max":0,"o":"m 478 619 b 514 583 490 615 514 607 b 511 567 514 578 514 572 l 338 132 l 164 569 b 161 586 161 576 161 582 b 194 619 161 608 182 615 l 194 625 l 0 625 l 0 619 l 1 619 b 74 529 8 619 39 614 b 285 0 133 382 236 122 l 249 -92 b 58 -254 186 -237 58 -254 l 113 -343 b 242 -133 113 -343 186 -274 b 506 529 258 -93 474 447 b 578 619 540 614 571 619 l 579 619 l 579 625 l 478 625 z "},"z":{"ha":632,"x_min":0,"x_max":0,"o":"m 121 11 b 536 625 228 169 438 481 l 53 625 l 26 506 b 268 614 26 506 144 614 l 415 614 b 0 0 300 443 89 129 l 483 0 l 510 118 b 268 11 510 118 392 11 z "},"{":{"ha":363,"x_min":0,"x_max":0,"o":"m 72 232 b 272 0 72 117 122 0 l 272 10 b 189 233 217 10 189 69 b 61 485 189 447 63 485 b 189 736 63 485 189 522 b 272 958 189 881 217 958 l 272 968 b 72 738 122 968 72 856 b 0 489 72 617 61 511 l 0 481 b 72 232 61 458 72 353 z "},"|":{"ha":200,"x_min":0,"x_max":0,"o":"m 110 0 l 110 968 l 0 968 l 0 0 z "},"}":{"ha":364,"x_min":0,"x_max":0,"o":"m 83 233 b 0 10 83 88 57 10 l 0 0 b 200 232 151 0 200 114 b 274 481 200 353 211 458 l 274 489 b 200 738 211 511 200 617 b 0 968 200 853 151 968 l 0 958 b 83 736 57 958 83 900 b 211 485 83 522 211 485 b 83 233 211 485 83 447 z "},"~":{"ha":228,"x_min":0,"x_max":0,"o":"m 110 497 b 50 517 86 497 76 517 b 0 453 7 517 0 464 l 0 451 l 10 451 b 29 471 10 453 10 471 b 88 451 54 471 63 451 b 138 515 131 451 138 504 l 138 517 l 128 517 b 110 497 128 517 128 497 z "},"¡":{"ha":200,"x_min":0,"x_max":0,"o":"m 54 821 b 0 83 39 821 0 142 b 54 0 0 33 24 0 b 110 83 85 0 110 38 b 54 821 110 144 68 821 z m 103 919 b 54 968 103 946 82 968 b 6 919 28 968 6 946 b 54 871 6 892 28 871 b 103 919 82 871 103 892 z "},"¢":{"ha":965,"x_min":0,"x_max":0,"o":"m 876 767 b 485 968 876 767 747 968 l 478 968 l 478 1054 l 468 1054 l 468 968 b 0 485 208 960 0 746 b 468 0 0 222 208 8 l 468 -85 l 478 -85 l 478 0 l 485 0 b 861 181 726 0 861 181 l 851 192 b 536 36 851 192 740 36 b 478 40 517 36 497 38 l 478 958 b 801 736 710 957 801 736 z m 468 42 b 110 503 269 75 110 251 b 468 958 110 744 286 954 z "},"£":{"ha":778,"x_min":0,"x_max":0,"o":"m 138 110 b 232 353 208 204 232 283 b 208 481 232 399 222 440 l 338 481 l 338 490 l 206 490 b 124 769 174 581 124 667 b 308 958 124 899 218 958 b 601 753 472 958 601 753 l 688 850 b 335 968 688 850 517 968 b 14 735 196 968 14 921 b 117 490 14 657 69 576 l 0 490 l 0 481 l 121 481 b 179 285 153 419 179 356 b 42 10 179 203 144 113 l 42 0 l 614 0 l 672 146 b 507 110 672 146 640 110 z "},"¥":{"ha":1011,"x_min":0,"x_max":0,"o":"m 799 879 b 919 960 846 946 919 960 l 919 968 l 772 968 l 772 960 b 808 928 785 958 808 950 b 793 890 808 918 804 906 l 500 467 b 221 882 364 667 221 882 b 208 914 213 894 208 904 b 251 960 208 939 236 954 l 251 968 l 0 968 l 0 960 l 1 960 b 125 828 6 960 36 954 b 394 429 165 771 283 594 l 394 378 l 258 378 l 258 368 l 394 368 l 394 282 l 258 282 l 258 272 l 394 272 l 394 100 b 347 6 394 22 386 22 l 347 0 l 553 0 l 553 6 b 504 100 513 22 504 21 l 506 272 l 640 272 l 640 282 l 506 282 l 506 368 l 640 368 l 640 378 l 506 378 l 506 458 b 799 879 539 507 739 793 z "},"§":{"ha":575,"x_min":0,"x_max":0,"o":"m 485 150 b 299 350 485 247 393 303 b 485 499 389 357 485 393 b 92 863 485 700 92 724 b 201 958 92 922 138 958 b 410 831 318 958 410 831 l 472 892 b 219 968 472 892 350 968 b 0 819 122 968 0 938 b 175 618 0 718 85 663 b 0 471 88 608 0 572 b 392 107 0 253 392 246 b 282 10 392 46 347 10 b 75 139 171 10 75 139 l 13 76 b 264 0 13 76 135 0 b 485 150 363 0 485 32 z m 282 358 b 92 514 186 406 92 446 b 190 610 92 571 132 606 b 392 454 290 563 392 526 b 282 358 392 394 347 358 z "},"©":{"ha":1058,"x_min":0,"x_max":0,"o":"m 504 161 b 757 282 667 161 757 282 l 750 289 b 540 185 750 289 676 185 b 254 497 388 185 254 310 b 499 801 254 660 375 801 b 717 653 654 801 717 653 l 767 674 b 504 808 767 674 681 808 b 182 485 326 808 182 663 b 504 161 182 306 326 161 z m 485 0 b 968 485 751 0 968 217 b 485 968 968 751 751 968 b 0 485 217 968 0 751 b 485 0 0 217 217 0 z m 485 958 b 958 485 746 958 958 746 b 485 10 958 222 746 10 b 10 485 222 10 10 222 b 485 958 10 746 222 958 z "},"ª":{"ha":214,"x_min":0,"x_max":0,"o":"m 97 824 b 124 832 101 824 124 832 b 115 853 124 832 115 835 l 115 911 b 65 968 115 951 90 968 b 15 951 53 968 15 951 l 29 938 b 65 967 29 938 46 967 b 93 924 79 967 90 953 b 0 861 65 897 0 901 b 47 824 0 838 25 824 b 93 843 74 824 88 836 l 93 832 b 97 824 93 829 93 824 z m 57 828 b 24 865 39 828 24 842 b 54 901 24 883 38 894 b 93 921 68 906 82 911 l 93 847 b 57 828 88 839 75 828 z "},"«":{"ha":417,"x_min":0,"x_max":0,"o":"m 200 365 l 31 485 l 200 604 l 200 649 l 0 507 l 0 464 l 200 322 z m 328 649 l 126 507 l 126 464 l 328 322 l 328 365 l 157 485 l 328 604 z "},"®":{"ha":1058,"x_min":0,"x_max":0,"o":"m 388 165 b 356 228 361 175 356 175 l 356 435 l 444 435 b 622 186 496 435 622 186 b 625 178 625 183 625 181 b 604 165 625 169 614 168 l 604 161 l 771 161 l 771 165 l 768 165 b 681 233 758 165 715 169 b 539 439 639 307 575 429 b 728 621 633 451 728 503 b 488 808 728 754 594 808 l 250 808 l 250 804 b 282 742 276 793 282 794 l 282 228 b 250 165 282 175 276 175 l 250 161 l 388 161 z m 356 801 l 465 801 b 657 621 594 801 657 722 b 465 442 657 515 594 442 l 356 442 z m 485 0 b 968 485 751 0 968 217 b 485 968 968 751 751 968 b 0 485 217 968 0 751 b 485 0 0 217 217 0 z m 485 958 b 958 485 746 958 958 746 b 485 10 958 222 746 10 b 10 485 222 10 10 222 b 485 958 10 746 222 958 z "},"°":{"ha":232,"x_min":0,"x_max":0,"o":"m 0 897 b 71 825 0 857 32 825 b 143 897 111 825 143 857 b 71 968 143 936 111 968 b 0 897 32 968 0 936 z m 119 894 b 74 828 119 858 100 828 b 22 900 47 828 22 860 b 69 967 22 936 42 967 b 119 894 96 967 119 935 z "},"±":{"ha":394,"x_min":0,"x_max":0,"o":"m 303 550 l 169 550 l 169 685 l 133 685 l 133 550 l 0 550 l 0 515 l 133 515 l 133 381 l 169 381 l 169 515 l 303 515 z m 0 285 l 303 285 l 303 319 l 0 319 z "},"²":{"ha":190,"x_min":0,"x_max":0,"o":"m 101 933 b 53 968 101 961 74 968 b 0 950 25 968 0 950 l 13 936 b 57 967 13 936 32 967 b 85 939 69 967 85 958 b 7 825 85 889 18 835 l 7 824 l 92 824 l 101 846 b 76 840 101 846 96 840 l 28 840 b 101 933 56 863 101 904 z "},"³":{"ha":196,"x_min":0,"x_max":0,"o":"m 47 825 b 14 861 28 825 14 849 l 14 863 l 0 847 b 47 824 0 847 8 824 b 104 865 85 824 104 844 b 53 907 104 885 89 904 b 97 939 69 910 97 917 b 54 968 97 961 72 968 b 6 951 31 968 6 951 l 18 938 b 53 967 18 938 29 967 b 81 942 68 967 81 957 b 40 907 81 908 46 907 l 42 906 b 88 867 74 906 88 886 b 47 825 88 846 72 825 z "},"´":{"ha":201,"x_min":0,"x_max":0,"o":"m 0 881 l 31 881 l 111 967 l 35 967 z "},"·":{"ha":186,"x_min":0,"x_max":0,"o":"m 97 485 b 49 533 97 511 76 533 b 0 485 22 533 0 511 b 49 435 0 457 22 435 b 97 485 76 435 97 457 z "},"¹":{"ha":121,"x_min":0,"x_max":0,"o":"m 24 964 b 19 968 24 965 22 968 b 1 963 17 968 1 963 b 7 950 1 963 7 961 l 7 839 b 0 825 7 826 6 826 l 0 824 l 31 824 l 31 825 b 24 839 24 826 24 826 z "},"º":{"ha":190,"x_min":0,"x_max":0,"o":"m 100 896 b 50 968 100 936 78 968 b 0 896 22 968 0 936 b 50 824 0 856 22 824 b 100 896 78 824 100 856 z m 17 899 b 49 967 17 936 26 967 b 85 893 69 967 85 935 b 51 825 85 857 74 825 b 17 899 31 825 17 858 z "},"»":{"ha":415,"x_min":0,"x_max":0,"o":"m 328 507 l 126 649 l 126 604 l 296 485 l 126 365 l 126 322 l 328 464 z m 0 322 l 200 464 l 200 507 l 0 649 l 0 604 l 169 485 l 0 365 z "},"¿":{"ha":764,"x_min":0,"x_max":0,"o":"m 421 919 b 372 968 421 946 399 968 b 324 919 344 968 324 946 b 372 871 324 892 344 871 b 421 919 399 871 421 892 z m 319 0 b 674 119 503 0 674 119 l 588 215 b 294 10 588 215 458 10 b 110 199 204 10 110 71 b 376 821 110 451 376 618 l 367 821 b 0 233 367 629 0 433 b 319 0 0 49 182 0 z "},"À":{"ha":975,"x_min":0,"x_max":0,"o":"m 150 8 b 96 63 135 11 96 21 b 103 96 96 71 97 82 l 188 308 l 594 308 l 690 68 b 694 53 693 63 694 57 b 651 8 694 31 671 15 l 651 0 l 879 0 l 879 8 l 878 8 b 796 103 872 8 832 13 b 451 968 704 332 526 779 l 440 968 b 99 113 440 968 171 293 b 0 8 57 10 3 8 l 0 0 l 150 0 z m 392 819 l 592 318 l 192 318 z m 463 1006 l 429 1092 l 351 1092 l 432 1006 z "},"Á":{"ha":975,"x_min":0,"x_max":0,"o":"m 150 8 b 96 63 135 11 96 21 b 103 96 96 71 97 82 l 188 308 l 594 308 l 690 68 b 694 53 693 63 694 57 b 651 8 694 31 671 15 l 651 0 l 879 0 l 879 8 l 878 8 b 796 103 872 8 832 13 b 451 968 704 332 526 779 l 440 968 b 99 113 440 968 171 293 b 0 8 57 10 3 8 l 0 0 l 150 0 z m 392 819 l 592 318 l 192 318 z m 432 1006 l 463 1006 l 543 1092 l 467 1092 z "},"Â":{"ha":975,"x_min":0,"x_max":0,"o":"m 150 8 b 96 63 135 11 96 21 b 103 96 96 71 97 82 l 188 308 l 594 308 l 690 68 b 694 53 693 63 694 57 b 651 8 694 31 671 15 l 651 0 l 879 0 l 879 8 l 878 8 b 796 103 872 8 832 13 b 451 968 704 332 526 779 l 440 968 b 99 113 440 968 171 293 b 0 8 57 10 3 8 l 0 0 l 150 0 z m 392 819 l 592 318 l 192 318 z m 447 1039 l 501 1006 l 538 1006 l 471 1090 l 424 1090 l 357 1006 l 393 1006 z "},"Ã":{"ha":975,"x_min":0,"x_max":0,"o":"m 150 8 b 96 63 135 11 96 21 b 103 96 96 71 97 82 l 188 308 l 594 308 l 690 68 b 694 53 693 63 694 57 b 651 8 694 31 671 15 l 651 0 l 879 0 l 879 8 l 878 8 b 796 103 872 8 832 13 b 451 968 704 332 526 779 l 440 968 b 99 113 440 968 171 293 b 0 8 57 10 3 8 l 0 0 l 150 0 z m 392 819 l 592 318 l 192 318 z m 486 1061 b 426 1081 463 1061 453 1081 b 376 1017 383 1081 376 1028 l 376 1015 l 386 1015 b 406 1035 386 1017 386 1035 b 464 1015 431 1035 439 1015 b 514 1079 507 1015 514 1068 l 514 1081 l 504 1081 b 486 1061 504 1081 504 1061 z "},"Ä":{"ha":975,"x_min":0,"x_max":0,"o":"m 150 8 b 96 63 135 11 96 21 b 103 96 96 71 97 82 l 188 308 l 594 308 l 690 68 b 694 53 693 63 694 57 b 651 8 694 31 671 15 l 651 0 l 879 0 l 879 8 l 878 8 b 796 103 872 8 832 13 b 451 968 704 332 526 779 l 440 968 b 99 113 440 968 171 293 b 0 8 57 10 3 8 l 0 0 l 150 0 z m 392 819 l 592 318 l 192 318 z m 371 1039 b 404 1006 371 1021 385 1006 b 438 1039 422 1006 438 1021 b 404 1074 438 1058 422 1074 b 371 1039 385 1074 371 1058 z m 453 1039 b 486 1006 453 1021 468 1006 b 521 1039 506 1006 521 1021 b 486 1074 521 1058 506 1074 b 453 1039 468 1074 453 1058 z "},"Å":{"ha":975,"x_min":0,"x_max":0,"o":"m 150 8 b 96 63 135 11 96 21 b 103 96 96 71 97 82 l 188 308 l 594 308 l 690 68 b 694 53 693 63 694 57 b 651 8 694 31 671 15 l 651 0 l 879 0 l 879 8 l 878 8 b 796 103 872 8 832 13 b 451 968 704 332 526 779 l 440 968 b 99 113 440 968 171 293 b 0 8 57 10 3 8 l 0 0 l 150 0 z m 392 819 l 592 318 l 192 318 z m 394 1056 b 444 1006 394 1028 417 1006 b 494 1056 472 1006 494 1028 b 444 1106 494 1083 472 1106 b 394 1056 417 1106 394 1083 z m 475 1054 b 446 1013 475 1032 463 1013 b 414 1057 429 1013 414 1032 b 443 1099 414 1081 426 1099 b 475 1054 460 1099 475 1079 z "},"Æ":{"ha":1186,"x_min":0,"x_max":0,"o":"m 393 0 l 1049 0 l 1097 149 b 818 10 1097 149 975 10 l 550 10 l 550 479 l 840 479 b 933 401 918 479 918 440 l 939 401 l 939 568 l 933 568 b 840 489 918 528 918 489 l 550 489 l 550 958 l 824 958 b 1076 850 957 958 1076 850 l 1049 968 l 440 968 b 99 114 365 779 189 338 b 0 10 58 13 6 10 l 0 0 l 150 0 l 150 10 b 97 63 136 11 97 21 b 104 97 97 72 99 83 l 188 308 l 440 308 l 440 100 b 393 6 440 22 432 22 z m 192 318 l 440 943 l 440 318 z "},"Ç":{"ha":974,"x_min":0,"x_max":0,"o":"m 465 0 l 461 -28 l 465 -28 b 467 -26 467 -28 467 -28 b 469 -25 468 -26 468 -26 b 478 -21 471 -24 474 -22 b 492 -19 482 -19 486 -19 b 515 -32 504 -19 513 -24 b 519 -50 518 -39 519 -46 b 515 -68 519 -57 518 -62 b 489 -85 511 -79 501 -85 b 471 -75 482 -85 475 -82 b 463 -58 465 -69 463 -64 l 451 -69 l 454 -72 b 460 -79 456 -74 457 -76 b 471 -86 461 -82 465 -85 b 489 -89 475 -87 482 -89 b 525 -75 508 -89 521 -85 b 533 -53 531 -67 533 -58 b 528 -35 533 -47 531 -40 b 492 -15 521 -24 510 -17 b 475 -18 485 -15 479 -17 b 465 -24 471 -19 467 -22 l 469 0 l 485 0 b 647 28 546 0 600 10 b 765 90 693 46 733 67 b 838 153 797 114 821 135 l 863 181 l 851 192 l 851 190 b 849 189 850 190 850 190 b 833 169 846 185 840 179 b 832 168 832 169 832 169 b 771 114 818 153 797 135 b 672 60 744 93 711 75 b 538 36 633 44 589 36 b 325 94 461 36 390 56 b 169 258 260 133 208 188 b 110 503 129 328 110 410 b 164 729 110 585 128 660 b 300 897 199 799 244 854 b 475 960 356 939 414 960 b 625 926 533 960 583 949 b 726 849 667 903 700 878 b 783 771 753 819 771 793 b 800 739 792 754 797 743 b 801 738 800 738 800 738 l 801 736 l 878 767 l 878 768 b 876 769 876 768 876 768 b 854 797 872 774 865 782 b 781 868 838 818 813 842 b 657 938 747 894 706 917 b 485 968 608 958 550 968 b 242 903 396 968 315 946 b 65 728 168 860 108 801 b 0 485 22 654 0 574 b 65 240 0 394 22 314 b 242 65 108 167 168 108 b 465 0 310 25 383 3 z "},"È":{"ha":800,"x_min":0,"x_max":0,"o":"m 704 147 b 425 10 704 147 582 10 l 157 10 l 157 479 l 447 479 b 540 401 525 479 525 440 l 546 401 l 546 567 l 540 567 b 447 489 525 528 525 489 l 157 489 l 157 960 l 431 960 b 683 850 564 960 683 850 l 656 968 l 0 968 l 0 963 b 47 869 39 947 47 947 l 47 99 b 0 6 47 21 39 21 l 0 0 l 656 0 z m 365 1006 l 332 1092 l 254 1092 l 335 1006 z "},"É":{"ha":800,"x_min":0,"x_max":0,"o":"m 704 147 b 425 10 704 147 582 10 l 157 10 l 157 479 l 447 479 b 540 401 525 479 525 440 l 546 401 l 546 567 l 540 567 b 447 489 525 528 525 489 l 157 489 l 157 960 l 431 960 b 683 850 564 960 683 850 l 656 968 l 0 968 l 0 963 b 47 869 39 947 47 947 l 47 99 b 0 6 47 21 39 21 l 0 0 l 656 0 z m 331 1006 l 361 1006 l 442 1092 l 365 1092 z "},"Ê":{"ha":800,"x_min":0,"x_max":0,"o":"m 704 147 b 425 10 704 147 582 10 l 157 10 l 157 479 l 447 479 b 540 401 525 479 525 440 l 546 401 l 546 567 l 540 567 b 447 489 525 528 525 489 l 157 489 l 157 960 l 431 960 b 683 850 564 960 683 850 l 656 968 l 0 968 l 0 963 b 47 869 39 947 47 947 l 47 99 b 0 6 47 21 39 21 l 0 0 l 656 0 z m 353 1039 l 407 1006 l 443 1006 l 376 1090 l 329 1090 l 263 1006 l 299 1006 z "},"Ë":{"ha":800,"x_min":0,"x_max":0,"o":"m 704 147 b 425 10 704 147 582 10 l 157 10 l 157 479 l 447 479 b 540 401 525 479 525 440 l 546 401 l 546 567 l 540 567 b 447 489 525 528 525 489 l 157 489 l 157 960 l 431 960 b 683 850 564 960 683 850 l 656 968 l 0 968 l 0 963 b 47 869 39 947 47 947 l 47 99 b 0 6 47 21 39 21 l 0 0 l 656 0 z m 285 1039 b 318 1006 285 1021 299 1006 b 351 1039 336 1006 351 1021 b 318 1074 351 1058 336 1074 b 285 1039 299 1074 285 1058 z m 367 1039 b 400 1006 367 1021 382 1006 b 435 1039 419 1006 435 1021 b 400 1074 435 1058 419 1074 b 367 1039 382 1074 367 1058 z "},"Ì":{"ha":300,"x_min":0,"x_max":0,"o":"m 206 6 b 158 99 167 21 158 21 l 158 869 b 206 963 158 947 167 947 l 206 968 l 0 968 l 0 963 b 49 869 40 947 49 947 l 49 99 b 0 6 49 21 40 21 l 0 0 l 206 0 z m 119 1006 l 86 1092 l 8 1092 l 89 1006 z "},"Í":{"ha":300,"x_min":0,"x_max":0,"o":"m 206 6 b 158 99 167 21 158 21 l 158 869 b 206 963 158 947 167 947 l 206 968 l 0 968 l 0 963 b 49 869 40 947 49 947 l 49 99 b 0 6 49 21 40 21 l 0 0 l 206 0 z m 90 1006 l 121 1006 l 201 1092 l 125 1092 z "},"Î":{"ha":300,"x_min":0,"x_max":0,"o":"m 206 6 b 158 99 167 21 158 21 l 158 869 b 206 963 158 947 167 947 l 206 968 l 0 968 l 0 963 b 49 869 40 947 49 947 l 49 99 b 0 6 49 21 40 21 l 0 0 l 206 0 z m 106 1039 l 160 1006 l 196 1006 l 129 1090 l 82 1090 l 15 1006 l 51 1006 z "},"Ï":{"ha":300,"x_min":0,"x_max":0,"o":"m 206 6 b 158 99 167 21 158 21 l 158 869 b 206 963 158 947 167 947 l 206 968 l 0 968 l 0 963 b 49 869 40 947 49 947 l 49 99 b 0 6 49 21 40 21 l 0 0 l 206 0 z m 28 1039 b 61 1006 28 1021 42 1006 b 94 1039 79 1006 94 1021 b 61 1074 94 1058 79 1074 b 28 1039 42 1074 28 1058 z m 110 1039 b 143 1006 110 1021 125 1006 b 178 1039 163 1006 178 1021 b 143 1074 178 1058 163 1074 b 110 1039 125 1074 110 1058 z "},"Ð":{"ha":914,"x_min":0,"x_max":0,"o":"m 206 479 l 303 479 l 303 490 l 206 490 l 206 960 l 301 960 b 514 896 381 960 451 939 b 658 724 575 853 624 794 b 710 485 693 651 710 572 b 661 246 710 397 693 317 b 519 74 628 174 581 117 b 301 10 458 31 386 10 l 206 10 z m 96 490 l 0 490 l 0 479 l 96 479 l 96 99 b 93 44 96 74 94 56 b 79 21 90 33 86 25 b 53 7 72 17 64 11 b 47 6 51 7 49 7 l 47 0 l 315 0 b 586 65 419 0 510 22 b 760 240 661 108 719 167 b 819 485 800 314 819 394 b 758 728 819 574 799 654 b 583 903 717 801 658 860 b 315 968 507 946 418 968 l 47 968 l 47 963 b 53 961 49 961 51 961 b 79 947 64 957 72 951 b 93 924 86 943 90 935 b 96 869 94 913 96 894 z "},"Ñ":{"ha":900,"x_min":0,"x_max":0,"o":"m 717 192 l 171 968 l 0 968 l 0 963 b 78 869 39 947 78 947 l 78 99 b 0 6 78 21 39 21 l 0 0 l 165 0 l 165 6 b 88 99 126 21 88 21 l 88 896 l 717 0 l 726 0 l 726 869 b 804 963 726 947 765 947 l 804 968 l 639 968 l 639 963 b 717 869 678 947 717 947 z m 442 1061 b 382 1081 418 1061 408 1081 b 332 1017 339 1081 332 1028 l 332 1015 l 342 1015 b 361 1035 342 1017 342 1035 b 419 1015 386 1035 394 1015 b 469 1079 463 1015 469 1068 l 469 1081 l 460 1081 b 442 1061 460 1081 460 1061 z "},"Ò":{"ha":1065,"x_min":0,"x_max":0,"o":"m 968 483 b 483 968 968 751 751 968 b 0 483 217 968 0 751 b 483 0 0 217 217 0 b 968 483 751 0 968 217 z m 499 8 b 110 503 297 8 110 226 b 468 958 110 749 261 958 b 858 463 669 958 858 744 b 499 8 858 218 704 8 z m 493 1006 l 460 1092 l 382 1092 l 463 1006 z "},"Ó":{"ha":1065,"x_min":0,"x_max":0,"o":"m 968 483 b 483 968 968 751 751 968 b 0 483 217 968 0 751 b 483 0 0 217 217 0 b 968 483 751 0 968 217 z m 499 8 b 110 503 297 8 110 226 b 468 958 110 749 261 958 b 858 463 669 958 858 744 b 499 8 858 218 704 8 z m 458 1006 l 489 1006 l 569 1092 l 493 1092 z "},"Ô":{"ha":1065,"x_min":0,"x_max":0,"o":"m 968 483 b 483 968 968 751 751 968 b 0 483 217 968 0 751 b 483 0 0 217 217 0 b 968 483 751 0 968 217 z m 499 8 b 110 503 297 8 110 226 b 468 958 110 749 261 958 b 858 463 669 958 858 744 b 499 8 858 218 704 8 z m 469 1039 l 524 1006 l 560 1006 l 493 1090 l 446 1090 l 379 1006 l 415 1006 z "},"Õ":{"ha":1065,"x_min":0,"x_max":0,"o":"m 968 483 b 483 968 968 751 751 968 b 0 483 217 968 0 751 b 483 0 0 217 217 0 b 968 483 751 0 968 217 z m 499 8 b 110 503 297 8 110 226 b 468 958 110 749 261 958 b 858 463 669 958 858 744 b 499 8 858 218 704 8 z m 521 1061 b 461 1081 497 1061 488 1081 b 411 1017 418 1081 411 1028 l 411 1015 l 421 1015 b 440 1035 421 1017 421 1035 b 499 1015 465 1035 474 1015 b 549 1079 542 1015 549 1068 l 549 1081 l 539 1081 b 521 1061 539 1081 539 1061 z "},"Ö":{"ha":1065,"x_min":0,"x_max":0,"o":"m 968 483 b 483 968 968 751 751 968 b 0 483 217 968 0 751 b 483 0 0 217 217 0 b 968 483 751 0 968 217 z m 499 8 b 110 503 297 8 110 226 b 468 958 110 749 261 958 b 858 463 669 958 858 744 b 499 8 858 218 704 8 z m 407 1039 b 440 1006 407 1021 421 1006 b 474 1039 458 1006 474 1021 b 440 1074 474 1058 458 1074 b 407 1039 421 1074 407 1058 z m 489 1039 b 522 1006 489 1021 504 1006 b 557 1039 542 1006 557 1021 b 522 1074 557 1058 542 1074 b 489 1039 504 1074 489 1058 z "},"×":{"ha":331,"x_min":0,"x_max":0,"o":"m 26 365 l 121 460 l 215 365 l 240 390 l 146 485 l 240 581 l 215 606 l 121 510 l 26 606 l 0 581 l 96 485 l 0 390 z "},"Ø":{"ha":1065,"x_min":0,"x_max":0,"o":"m 636 908 l 300 81 b 165 253 244 124 200 181 b 110 503 128 326 110 410 b 157 729 110 585 125 660 b 283 896 188 797 229 853 b 468 958 338 938 399 958 b 636 908 528 958 583 942 z m 329 60 l 667 886 b 803 715 722 844 768 786 b 858 463 840 640 858 556 b 811 238 858 381 843 306 b 683 72 779 169 738 114 b 499 8 629 29 567 8 b 329 60 439 8 383 25 z m 683 925 l 700 968 l 661 968 l 650 939 b 483 968 597 958 542 968 b 240 903 394 968 314 946 b 65 726 167 858 108 800 b 0 483 22 653 0 572 b 65 240 0 394 22 314 b 240 65 108 167 167 108 b 283 42 254 57 269 49 l 267 0 l 306 0 l 317 29 b 483 0 369 10 425 0 b 728 65 572 0 654 22 b 903 240 801 108 860 167 b 968 483 946 314 968 394 b 903 726 968 572 946 653 b 728 903 860 800 801 858 b 683 925 713 911 697 918 z "},"Ù":{"ha":894,"x_min":0,"x_max":0,"o":"m 799 968 l 633 968 l 633 963 b 711 869 672 947 711 947 l 711 308 b 407 10 711 108 564 10 b 158 314 306 10 158 61 l 158 869 b 206 963 158 947 167 947 l 206 968 l 0 968 l 0 963 b 49 869 39 947 49 947 l 49 318 b 407 0 49 61 258 0 b 721 308 561 0 721 94 l 721 869 b 799 963 721 947 760 947 z m 415 1006 l 382 1092 l 304 1092 l 385 1006 z "},"Ú":{"ha":894,"x_min":0,"x_max":0,"o":"m 799 968 l 633 968 l 633 963 b 711 869 672 947 711 947 l 711 308 b 407 10 711 108 564 10 b 158 314 306 10 158 61 l 158 869 b 206 963 158 947 167 947 l 206 968 l 0 968 l 0 963 b 49 869 39 947 49 947 l 49 318 b 407 0 49 61 258 0 b 721 308 561 0 721 94 l 721 869 b 799 963 721 947 760 947 z m 381 1006 l 411 1006 l 492 1092 l 415 1092 z "},"Û":{"ha":894,"x_min":0,"x_max":0,"o":"m 799 968 l 633 968 l 633 963 b 711 869 672 947 711 947 l 711 308 b 407 10 711 108 564 10 b 158 314 306 10 158 61 l 158 869 b 206 963 158 947 167 947 l 206 968 l 0 968 l 0 963 b 49 869 39 947 49 947 l 49 318 b 407 0 49 61 258 0 b 721 308 561 0 721 94 l 721 869 b 799 963 721 947 760 947 z m 399 1039 l 453 1006 l 489 1006 l 422 1090 l 375 1090 l 308 1006 l 344 1006 z "},"Ü":{"ha":894,"x_min":0,"x_max":0,"o":"m 799 968 l 633 968 l 633 963 b 711 869 672 947 711 947 l 711 308 b 407 10 711 108 564 10 b 158 314 306 10 158 61 l 158 869 b 206 963 158 947 167 947 l 206 968 l 0 968 l 0 963 b 49 869 39 947 49 947 l 49 318 b 407 0 49 61 258 0 b 721 308 561 0 721 94 l 721 869 b 799 963 721 947 760 947 z m 328 1039 b 361 1006 328 1021 342 1006 b 394 1039 379 1006 394 1021 b 361 1074 394 1058 379 1074 b 328 1039 342 1074 328 1058 z m 410 1039 b 443 1006 410 1021 425 1006 b 478 1039 463 1006 478 1021 b 443 1074 478 1058 463 1074 b 410 1039 425 1074 410 1058 z "},"Ý":{"ha":1015,"x_min":0,"x_max":0,"o":"m 126 828 b 396 428 165 771 285 594 l 396 99 b 347 6 396 21 388 21 l 347 0 l 553 0 l 553 6 b 506 99 514 21 506 21 l 506 457 b 800 879 540 506 739 793 b 921 960 847 946 921 960 l 921 968 l 774 968 l 774 960 b 810 928 786 958 810 950 b 794 890 810 918 806 906 l 500 465 b 221 882 365 667 221 882 b 210 914 213 894 210 904 b 253 960 210 939 236 954 l 253 968 l 0 968 l 0 960 l 1 960 b 126 828 6 960 36 954 z m 451 1006 l 482 1006 l 563 1092 l 486 1092 z "},"Þ":{"ha":761,"x_min":0,"x_max":0,"o":"m 672 485 b 226 897 672 713 488 897 l 158 897 b 206 963 161 947 172 949 l 206 968 l 0 968 l 0 963 b 49 869 40 947 49 947 l 49 100 b 0 6 49 22 40 22 l 0 0 l 206 0 l 206 6 b 158 72 172 19 161 21 l 226 72 b 672 485 494 72 672 257 z m 158 81 l 158 889 l 214 889 b 561 485 418 889 561 708 b 214 81 561 261 429 81 z "},"ß":{"ha":754,"x_min":0,"x_max":0,"o":"m 589 724 b 289 968 589 882 429 968 b 49 721 171 968 49 893 l 49 100 b 0 6 49 22 40 22 l 0 0 l 206 0 l 206 6 b 158 100 167 22 158 21 l 158 738 b 289 958 158 892 214 958 b 476 724 417 958 476 854 b 239 489 476 594 389 489 l 239 479 l 304 479 b 553 244 453 479 553 375 b 304 10 553 115 457 10 l 275 10 l 275 0 l 381 0 b 661 244 538 0 661 110 b 381 489 661 379 539 489 b 589 724 501 518 589 613 z "},"à":{"ha":629,"x_min":0,"x_max":0,"o":"m 496 376 b 281 625 496 550 386 625 b 64 551 228 625 64 551 l 126 490 b 279 614 126 490 194 614 b 397 431 342 614 389 560 b 0 158 292 319 0 336 b 200 0 0 58 106 0 b 397 86 318 0 375 56 l 397 33 b 418 0 397 24 400 0 b 533 36 436 0 533 36 b 496 124 532 38 496 49 z m 397 99 b 242 17 374 67 318 17 b 99 178 165 17 99 76 b 233 333 99 257 161 306 b 397 419 290 356 353 375 z m 278 663 l 244 749 l 167 749 l 247 663 z "},"á":{"ha":629,"x_min":0,"x_max":0,"o":"m 496 376 b 281 625 496 550 386 625 b 64 551 228 625 64 551 l 126 490 b 279 614 126 490 194 614 b 397 431 342 614 389 560 b 0 158 292 319 0 336 b 200 0 0 58 106 0 b 397 86 318 0 375 56 l 397 33 b 418 0 397 24 400 0 b 533 36 436 0 533 36 b 496 124 532 38 496 49 z m 397 99 b 242 17 374 67 318 17 b 99 178 165 17 99 76 b 233 333 99 257 161 306 b 397 419 290 356 353 375 z m 257 663 l 288 663 l 368 749 l 292 749 z "},"â":{"ha":629,"x_min":0,"x_max":0,"o":"m 496 376 b 281 625 496 550 386 625 b 64 551 228 625 64 551 l 126 490 b 279 614 126 490 194 614 b 397 431 342 614 389 560 b 0 158 292 319 0 336 b 200 0 0 58 106 0 b 397 86 318 0 375 56 l 397 33 b 418 0 397 24 400 0 b 533 36 436 0 533 36 b 496 124 532 38 496 49 z m 397 99 b 242 17 374 67 318 17 b 99 178 165 17 99 76 b 233 333 99 257 161 306 b 397 419 290 356 353 375 z m 271 696 l 325 663 l 361 663 l 294 747 l 247 747 l 181 663 l 217 663 z "},"ã":{"ha":629,"x_min":0,"x_max":0,"o":"m 496 376 b 281 625 496 550 386 625 b 64 551 228 625 64 551 l 126 490 b 279 614 126 490 194 614 b 397 431 342 614 389 560 b 0 158 292 319 0 336 b 200 0 0 58 106 0 b 397 86 318 0 375 56 l 397 33 b 418 0 397 24 400 0 b 533 36 436 0 533 36 b 496 124 532 38 496 49 z m 397 99 b 242 17 374 67 318 17 b 99 178 165 17 99 76 b 233 333 99 257 161 306 b 397 419 290 356 353 375 z m 310 718 b 250 738 286 718 276 738 b 200 674 207 738 200 685 l 200 672 l 210 672 b 229 692 210 674 210 692 b 288 672 254 692 263 672 b 338 736 331 672 338 725 l 338 738 l 328 738 b 310 718 328 738 328 718 z "},"ä":{"ha":629,"x_min":0,"x_max":0,"o":"m 496 376 b 281 625 496 550 386 625 b 64 551 228 625 64 551 l 126 490 b 279 614 126 490 194 614 b 397 431 342 614 389 560 b 0 158 292 319 0 336 b 200 0 0 58 106 0 b 397 86 318 0 375 56 l 397 33 b 418 0 397 24 400 0 b 533 36 436 0 533 36 b 496 124 532 38 496 49 z m 397 99 b 242 17 374 67 318 17 b 99 178 165 17 99 76 b 233 333 99 257 161 306 b 397 419 290 356 353 375 z m 192 696 b 225 663 192 678 206 663 b 258 696 243 663 258 678 b 225 731 258 715 243 731 b 192 696 206 731 192 715 z m 274 696 b 307 663 274 678 289 663 b 342 696 326 663 342 678 b 307 731 342 715 326 731 b 274 696 289 731 274 715 z "},"å":{"ha":629,"x_min":0,"x_max":0,"o":"m 496 376 b 281 625 496 550 386 625 b 64 551 228 625 64 551 l 126 490 b 279 614 126 490 194 614 b 397 431 342 614 389 560 b 0 158 292 319 0 336 b 200 0 0 58 106 0 b 397 86 318 0 375 56 l 397 33 b 418 0 397 24 400 0 b 533 36 436 0 533 36 b 496 124 532 38 496 49 z m 397 99 b 242 17 374 67 318 17 b 99 178 165 17 99 76 b 233 333 99 257 161 306 b 397 419 290 356 353 375 z m 213 713 b 263 663 213 685 235 663 b 313 713 290 663 313 685 b 263 763 313 740 290 763 b 213 713 235 763 213 740 z m 293 711 b 264 669 293 689 281 669 b 232 714 247 669 232 689 b 261 756 232 738 244 756 b 293 711 278 756 293 736 z "},"æ":{"ha":1089,"x_min":0,"x_max":0,"o":"m 397 99 b 339 44 385 81 365 63 b 242 17 313 26 279 17 b 142 60 204 17 171 31 b 99 178 113 88 99 126 b 139 275 99 217 113 249 b 233 333 165 300 196 319 b 254 342 240 336 247 339 b 397 419 308 357 356 383 z m 506 239 b 496 325 499 265 496 294 b 554 529 496 403 515 471 b 701 615 593 586 642 615 b 829 557 747 615 790 596 b 913 401 867 517 894 465 z m 500 82 b 710 0 558 28 629 0 b 838 25 760 0 803 8 b 924 83 872 42 901 61 b 974 143 946 106 963 125 b 992 176 983 161 990 172 l 982 179 l 982 178 b 981 176 981 178 981 176 b 969 156 978 172 975 165 b 926 101 960 140 946 122 b 853 47 907 81 882 63 b 744 24 822 32 786 24 b 593 79 685 24 633 42 b 507 229 551 117 522 167 l 914 392 l 1001 426 b 888 571 978 486 939 533 b 710 625 836 607 776 625 b 490 533 624 625 550 594 b 468 510 482 525 475 518 b 464 518 467 513 465 515 b 383 599 443 554 415 581 b 281 625 350 617 315 625 b 225 614 268 625 249 621 b 153 589 201 607 176 599 b 90 563 128 579 107 569 b 67 553 79 558 71 554 l 65 551 l 64 551 l 126 490 b 128 492 126 492 128 492 b 129 494 128 493 129 494 b 139 510 132 499 135 503 b 171 553 146 522 157 536 b 219 596 185 568 201 583 b 279 614 238 608 258 614 b 358 571 311 614 338 600 b 397 431 379 542 393 494 b 317 378 375 410 349 392 b 214 339 285 363 250 350 b 111 300 176 326 143 314 b 32 246 79 285 53 267 b 0 158 11 224 0 194 b 31 74 0 125 10 97 b 107 19 51 50 76 32 b 200 0 138 7 168 0 b 300 15 240 0 274 6 b 363 50 326 25 347 38 b 397 86 378 63 390 75 l 397 33 b 399 21 397 29 397 25 b 406 7 400 15 401 11 b 418 0 408 3 413 0 b 444 6 422 0 432 1 b 483 18 457 10 469 14 b 519 31 497 22 510 26 b 528 33 522 32 525 33 b 531 35 529 35 531 35 l 532 36 l 533 36 b 521 46 531 38 526 40 b 504 72 514 50 508 60 b 500 82 503 75 501 78 z "},"ç":{"ha":665,"x_min":0,"x_max":0,"o":"m 311 0 l 307 -28 l 311 -28 b 313 -26 313 -28 313 -28 b 315 -25 314 -26 314 -26 b 324 -21 317 -24 319 -22 b 338 -19 328 -19 332 -19 b 361 -32 350 -19 358 -24 b 365 -50 364 -39 365 -46 b 361 -68 365 -57 364 -62 b 335 -85 357 -79 347 -85 b 317 -75 328 -85 321 -82 b 308 -58 311 -69 308 -64 l 297 -69 l 300 -72 b 306 -79 301 -74 303 -76 b 317 -86 307 -82 311 -85 b 335 -89 321 -87 328 -89 b 371 -75 354 -89 367 -85 b 379 -53 376 -67 379 -58 b 374 -35 379 -47 376 -40 b 338 -15 367 -24 356 -17 b 321 -18 331 -15 325 -17 b 311 -24 317 -19 313 -22 l 315 0 b 425 21 357 0 393 7 b 506 67 457 33 485 49 b 554 114 526 85 543 100 b 569 135 564 126 569 133 l 560 140 b 531 103 557 133 547 121 b 458 50 513 85 489 67 b 346 24 428 32 390 24 b 167 108 272 24 213 51 b 97 325 121 164 97 236 b 156 529 97 403 117 471 b 303 615 194 586 243 615 b 492 465 379 615 442 565 l 565 494 b 313 625 500 582 417 625 b 92 533 225 625 151 594 b 0 313 31 472 0 399 b 92 92 0 226 31 153 b 311 0 151 31 225 0 z "},"è":{"ha":700,"x_min":0,"x_max":0,"o":"m 603 426 b 311 625 557 543 443 625 b 0 313 139 625 0 485 b 311 0 0 140 139 0 b 593 176 519 0 592 175 l 583 179 b 346 24 583 179 514 24 b 108 229 226 24 138 106 l 515 392 z m 107 239 b 97 325 101 265 97 294 b 303 615 97 481 183 615 b 514 401 394 615 482 528 z m 318 663 l 285 749 l 207 749 l 288 663 z "},"é":{"ha":700,"x_min":0,"x_max":0,"o":"m 603 426 b 311 625 557 543 443 625 b 0 313 139 625 0 485 b 311 0 0 140 139 0 b 593 176 519 0 592 175 l 583 179 b 346 24 583 179 514 24 b 108 229 226 24 138 106 l 515 392 z m 107 239 b 97 325 101 265 97 294 b 303 615 97 481 183 615 b 514 401 394 615 482 528 z m 285 663 l 315 663 l 396 749 l 319 749 z "},"ê":{"ha":700,"x_min":0,"x_max":0,"o":"m 603 426 b 311 625 557 543 443 625 b 0 313 139 625 0 485 b 311 0 0 140 139 0 b 593 176 519 0 592 175 l 583 179 b 346 24 583 179 514 24 b 108 229 226 24 138 106 l 515 392 z m 107 239 b 97 325 101 265 97 294 b 303 615 97 481 183 615 b 514 401 394 615 482 528 z m 307 696 l 361 663 l 397 663 l 331 747 l 283 747 l 217 663 l 253 663 z "},"ë":{"ha":700,"x_min":0,"x_max":0,"o":"m 603 426 b 311 625 557 543 443 625 b 0 313 139 625 0 485 b 311 0 0 140 139 0 b 593 176 519 0 592 175 l 583 179 b 346 24 583 179 514 24 b 108 229 226 24 138 106 l 515 392 z m 107 239 b 97 325 101 265 97 294 b 303 615 97 481 183 615 b 514 401 394 615 482 528 z m 228 696 b 261 663 228 678 242 663 b 294 696 279 663 294 678 b 261 731 294 715 279 731 b 228 696 242 731 228 715 z m 310 696 b 343 663 310 678 325 663 b 378 696 363 663 378 678 b 343 731 378 715 363 731 b 310 696 325 731 310 715 z "},"ì":{"ha":290,"x_min":0,"x_max":0,"o":"m 194 6 b 146 99 156 21 146 21 l 146 592 b 126 625 146 601 144 625 b 10 589 108 625 10 589 b 49 501 11 586 49 576 l 49 99 b 0 6 49 21 40 21 l 0 0 l 194 0 z m 106 663 l 72 749 l -6 749 l 75 663 z "},"í":{"ha":290,"x_min":0,"x_max":0,"o":"m 194 6 b 146 99 156 21 146 21 l 146 592 b 126 625 146 601 144 625 b 10 589 108 625 10 589 b 49 501 11 586 49 576 l 49 99 b 0 6 49 21 40 21 l 0 0 l 194 0 z m 86 663 l 117 663 l 197 749 l 121 749 z "},"î":{"ha":290,"x_min":0,"x_max":0,"o":"m 194 6 b 146 99 156 21 146 21 l 146 592 b 126 625 146 601 144 625 b 10 589 108 625 10 589 b 49 501 11 586 49 576 l 49 99 b 0 6 49 21 40 21 l 0 0 l 194 0 z m 100 696 l 154 663 l 190 663 l 124 747 l 76 747 l 10 663 l 46 663 z "},"ï":{"ha":290,"x_min":0,"x_max":0,"o":"m 194 6 b 146 99 156 21 146 21 l 146 592 b 126 625 146 601 144 625 b 10 589 108 625 10 589 b 49 501 11 586 49 576 l 49 99 b 0 6 49 21 40 21 l 0 0 l 194 0 z m 22 696 b 56 663 22 678 36 663 b 89 696 74 663 89 678 b 56 731 89 715 74 731 b 22 696 36 731 22 715 z m 104 696 b 138 663 104 678 119 663 b 172 696 157 663 172 678 b 138 731 172 715 157 731 b 104 696 119 731 104 715 z "},"ð":{"ha":715,"x_min":0,"x_max":0,"o":"m 483 90 b 454 60 478 83 468 72 b 399 25 439 47 421 35 b 321 10 376 15 350 10 b 167 100 264 10 213 40 b 99 325 121 160 99 235 b 157 529 99 403 118 471 b 304 615 196 586 244 615 b 408 594 343 615 378 608 b 483 524 439 579 464 556 z m 618 36 b 606 46 615 38 611 40 b 590 72 600 50 594 60 b 582 124 585 85 582 101 l 582 753 l 685 753 l 685 764 l 582 764 l 582 935 b 581 947 582 938 582 942 b 575 961 579 951 578 957 b 561 967 571 965 567 967 b 536 961 557 967 549 965 b 496 949 524 957 510 953 b 461 936 482 944 471 940 b 451 933 457 935 453 933 b 449 932 450 932 450 932 l 447 931 l 446 931 b 460 922 449 929 453 926 b 476 896 465 917 471 908 b 483 843 481 883 483 867 l 483 764 l 382 764 l 382 753 l 483 753 l 483 565 b 424 601 474 574 453 586 b 313 625 394 617 357 625 b 92 533 226 625 153 594 b 0 313 31 472 0 399 b 92 92 0 226 31 153 b 313 0 153 31 226 0 b 396 15 344 0 372 6 b 453 47 419 25 438 35 b 483 76 468 60 478 69 l 483 33 b 485 21 483 29 483 25 b 490 7 486 15 488 11 b 504 0 493 3 497 0 b 529 6 508 0 517 1 b 568 18 542 10 554 14 b 604 31 582 22 594 26 b 614 33 608 32 611 33 b 617 35 615 35 615 35 z "},"ñ":{"ha":685,"x_min":0,"x_max":0,"o":"m 540 376 b 318 625 540 563 429 625 b 146 531 221 625 146 532 l 146 592 b 125 625 146 601 143 625 b 8 589 107 625 8 589 b 47 501 11 586 47 576 l 47 99 b 0 6 47 21 39 21 l 0 0 l 193 0 l 193 6 b 146 99 154 21 146 21 l 146 517 b 318 615 146 518 218 615 b 442 393 400 615 442 550 l 442 99 b 394 6 442 21 433 21 l 394 0 l 588 0 l 588 6 b 540 99 549 21 540 21 z m 336 718 b 276 738 313 718 303 738 b 226 674 233 738 226 685 l 226 672 l 236 672 b 256 692 236 674 236 692 b 314 672 281 692 289 672 b 364 736 357 672 364 725 l 364 738 l 354 738 b 336 718 354 738 354 718 z "},"ò":{"ha":721,"x_min":0,"x_max":0,"o":"m 313 625 b 0 313 140 625 0 485 b 313 0 0 140 140 0 b 625 313 485 0 625 140 b 313 625 625 485 485 625 z m 321 10 b 99 325 206 10 99 149 b 304 615 99 481 185 615 b 526 299 419 615 526 478 b 321 10 526 143 439 10 z m 329 663 l 296 749 l 218 749 l 299 663 z "},"ó":{"ha":721,"x_min":0,"x_max":0,"o":"m 313 625 b 0 313 140 625 0 485 b 313 0 0 140 140 0 b 625 313 485 0 625 140 b 313 625 625 485 485 625 z m 321 10 b 99 325 206 10 99 149 b 304 615 99 481 185 615 b 526 299 419 615 526 478 b 321 10 526 143 439 10 z m 297 663 l 328 663 l 408 749 l 332 749 z "},"ô":{"ha":721,"x_min":0,"x_max":0,"o":"m 313 625 b 0 313 140 625 0 485 b 313 0 0 140 140 0 b 625 313 485 0 625 140 b 313 625 625 485 485 625 z m 321 10 b 99 325 206 10 99 149 b 304 615 99 481 185 615 b 526 299 419 615 526 478 b 321 10 526 143 439 10 z m 311 696 l 365 663 l 401 663 l 335 747 l 288 747 l 221 663 l 257 663 z "},"õ":{"ha":721,"x_min":0,"x_max":0,"o":"m 313 625 b 0 313 140 625 0 485 b 313 0 0 140 140 0 b 625 313 485 0 625 140 b 313 625 625 485 485 625 z m 321 10 b 99 325 206 10 99 149 b 304 615 99 481 185 615 b 526 299 419 615 526 478 b 321 10 526 143 439 10 z m 354 718 b 294 738 331 718 321 738 b 244 674 251 738 244 685 l 244 672 l 254 672 b 274 692 254 674 254 692 b 332 672 299 692 307 672 b 382 736 375 672 382 725 l 382 738 l 372 738 b 354 718 372 738 372 718 z "},"ö":{"ha":721,"x_min":0,"x_max":0,"o":"m 313 625 b 0 313 140 625 0 485 b 313 0 0 140 140 0 b 625 313 485 0 625 140 b 313 625 625 485 485 625 z m 321 10 b 99 325 206 10 99 149 b 304 615 99 481 185 615 b 526 299 419 615 526 478 b 321 10 526 143 439 10 z m 240 696 b 274 663 240 678 254 663 b 307 696 292 663 307 678 b 274 731 307 715 292 731 b 240 696 254 731 240 715 z m 322 696 b 356 663 322 678 338 663 b 390 696 375 663 390 678 b 356 731 390 715 375 731 b 322 696 338 731 322 715 z "},"÷":{"ha":393,"x_min":0,"x_max":0,"o":"m 0 467 l 303 467 l 303 503 l 0 503 z m 151 640 b 103 592 125 640 103 619 b 151 543 103 565 125 543 b 200 592 179 543 200 565 b 151 640 200 619 179 640 z m 151 426 b 103 378 125 426 103 404 b 151 328 103 350 125 328 b 200 378 179 328 200 350 b 151 426 200 404 179 426 z "},"ø":{"ha":721,"x_min":0,"x_max":0,"o":"m 404 581 l 194 68 b 167 101 185 78 176 89 b 99 325 121 161 99 236 b 157 529 99 403 118 471 b 304 615 196 586 244 615 b 404 581 340 615 374 604 z m 432 556 b 458 525 440 546 450 536 b 526 299 504 464 526 389 b 468 96 526 221 507 153 b 321 10 429 39 381 10 b 222 44 286 10 253 21 z m 179 29 l 167 0 l 204 0 l 211 17 b 313 0 243 6 276 0 b 533 92 399 0 472 31 b 625 313 594 153 625 226 b 533 533 625 399 594 472 b 447 596 507 560 478 581 l 460 625 l 422 625 l 415 608 b 313 625 383 619 349 625 b 92 533 226 625 153 594 b 0 313 31 472 0 399 b 92 92 0 226 31 153 b 179 29 118 65 147 44 z "},"ù":{"ha":664,"x_min":0,"x_max":0,"o":"m 531 592 b 510 625 531 601 528 625 b 394 589 492 625 394 589 b 432 501 396 586 432 576 l 432 107 b 260 10 424 94 354 10 b 136 231 178 10 136 75 l 136 592 b 115 625 136 601 133 625 b 0 589 97 625 0 589 b 39 501 1 586 39 576 l 39 249 b 261 0 39 63 149 0 b 432 93 353 0 424 82 l 432 33 b 453 0 432 24 435 0 b 568 36 471 0 568 36 b 531 124 567 38 531 49 z m 301 663 l 268 749 l 190 749 l 271 663 z "},"ú":{"ha":664,"x_min":0,"x_max":0,"o":"m 531 592 b 510 625 531 601 528 625 b 394 589 492 625 394 589 b 432 501 396 586 432 576 l 432 107 b 260 10 424 94 354 10 b 136 231 178 10 136 75 l 136 592 b 115 625 136 601 133 625 b 0 589 97 625 0 589 b 39 501 1 586 39 576 l 39 249 b 261 0 39 63 149 0 b 432 93 353 0 424 82 l 432 33 b 453 0 432 24 435 0 b 568 36 471 0 568 36 b 531 124 567 38 531 49 z m 268 663 l 299 663 l 379 749 l 303 749 z "},"û":{"ha":664,"x_min":0,"x_max":0,"o":"m 531 592 b 510 625 531 601 528 625 b 394 589 492 625 394 589 b 432 501 396 586 432 576 l 432 107 b 260 10 424 94 354 10 b 136 231 178 10 136 75 l 136 592 b 115 625 136 601 133 625 b 0 589 97 625 0 589 b 39 501 1 586 39 576 l 39 249 b 261 0 39 63 149 0 b 432 93 353 0 424 82 l 432 33 b 453 0 432 24 435 0 b 568 36 471 0 568 36 b 531 124 567 38 531 49 z m 286 696 l 340 663 l 376 663 l 310 747 l 263 747 l 196 663 l 232 663 z "},"ü":{"ha":664,"x_min":0,"x_max":0,"o":"m 531 592 b 510 625 531 601 528 625 b 394 589 492 625 394 589 b 432 501 396 586 432 576 l 432 107 b 260 10 424 94 354 10 b 136 231 178 10 136 75 l 136 592 b 115 625 136 601 133 625 b 0 589 97 625 0 589 b 39 501 1 586 39 576 l 39 249 b 261 0 39 63 149 0 b 432 93 353 0 424 82 l 432 33 b 453 0 432 24 435 0 b 568 36 471 0 568 36 b 531 124 567 38 531 49 z m 210 696 b 243 663 210 678 224 663 b 276 696 261 663 276 678 b 243 731 276 715 261 731 b 210 696 224 731 210 715 z m 292 696 b 325 663 292 678 307 663 b 360 696 344 663 360 678 b 325 731 360 715 344 731 b 292 696 307 731 292 715 z "},"ý":{"ha":675,"x_min":0,"x_max":0,"o":"m 478 619 b 514 583 490 615 514 607 b 511 567 514 578 514 572 l 338 132 l 164 569 b 161 586 161 576 161 582 b 194 619 161 608 182 615 l 194 625 l 0 625 l 0 619 l 1 619 b 74 529 8 619 39 614 b 285 0 133 382 236 122 l 249 -92 b 58 -254 186 -237 58 -254 l 113 -343 b 242 -133 113 -343 186 -274 b 506 529 258 -93 474 447 b 578 619 540 614 571 619 l 579 619 l 579 625 l 478 625 z m 276 663 l 307 663 l 388 749 l 311 749 z "},"þ":{"ha":578,"x_min":0,"x_max":0,"o":"m 489 313 b 201 563 489 451 361 563 l 147 563 b 194 621 151 607 163 608 l 194 626 l 0 625 l 0 619 b 47 526 39 604 47 604 l 47 97 b 0 4 47 19 39 19 l 0 -1 l 194 0 l 194 6 b 149 63 163 19 151 21 l 201 63 b 489 313 364 63 489 175 z m 147 68 l 147 558 l 194 558 b 390 313 318 558 390 449 b 194 68 390 178 325 68 z "},"ÿ":{"ha":675,"x_min":0,"x_max":0,"o":"m 478 619 b 514 583 490 615 514 607 b 511 567 514 578 514 572 l 338 132 l 164 569 b 161 586 161 576 161 582 b 194 619 161 608 182 615 l 194 625 l 0 625 l 0 619 l 1 619 b 74 529 8 619 39 614 b 285 0 133 382 236 122 l 249 -92 b 58 -254 186 -237 58 -254 l 113 -343 b 242 -133 113 -343 186 -274 b 506 529 258 -93 474 447 b 578 619 540 614 571 619 l 579 619 l 579 625 l 478 625 z m 217 696 b 250 663 217 678 231 663 b 283 696 268 663 283 678 b 250 731 283 715 268 731 b 217 696 231 731 217 715 z m 299 696 b 332 663 299 678 314 663 b 367 696 351 663 367 678 b 332 731 367 715 351 731 b 299 696 314 731 299 715 z "},"ı":{"ha":290,"x_min":0,"x_max":0,"o":"m 194 6 b 146 99 156 21 146 21 l 146 592 b 126 625 146 601 144 625 b 10 589 108 625 10 589 b 49 501 11 586 49 576 l 49 99 b 0 6 49 21 40 21 l 0 0 l 194 0 z "},"–":{"ha":404,"x_min":0,"x_max":0,"o":"m 0 467 l 315 467 l 315 503 l 0 503 z "},"—":{"ha":435,"x_min":0,"x_max":0,"o":"m 0 467 l 344 467 l 344 503 l 0 503 z "},"‘":{"ha":189,"x_min":0,"x_max":0,"o":"m 32 968 b 0 872 0 922 0 881 b 49 822 0 842 22 822 b 99 871 76 822 99 844 b 49 919 99 899 76 919 b 38 918 44 919 42 919 l 36 918 b 26 929 29 918 26 922 b 38 965 26 943 38 965 z "},"’":{"ha":189,"x_min":0,"x_max":0,"o":"m 67 822 b 99 917 99 868 99 910 b 49 968 97 947 76 968 b 0 919 22 968 0 946 b 49 869 0 892 22 869 b 61 871 53 869 57 871 l 64 871 b 71 861 69 871 71 867 b 61 825 71 847 61 825 z "},"‚":{"ha":189,"x_min":0,"x_max":0,"o":"m 67 -50 b 99 44 99 -4 99 38 b 49 96 97 75 76 96 b 0 47 22 96 0 74 b 49 -3 0 19 22 -3 b 61 -1 53 -3 57 -1 l 64 -1 b 71 -11 69 -1 71 -6 b 61 -47 71 -25 61 -47 z "},"“":{"ha":317,"x_min":0,"x_max":0,"o":"m 160 968 b 128 872 128 922 128 881 b 176 822 128 842 150 822 b 226 871 204 822 226 844 b 176 919 226 899 204 919 b 165 918 172 919 169 919 l 164 918 b 154 929 157 918 154 922 b 165 965 154 943 165 965 z m 32 968 b 0 872 0 922 0 881 b 49 822 0 842 22 822 b 99 871 76 822 99 844 b 49 919 99 899 76 919 b 38 918 44 919 42 919 l 36 918 b 26 929 29 918 26 922 b 38 965 26 943 38 965 z "},"”":{"ha":317,"x_min":0,"x_max":0,"o":"m 67 822 b 99 917 99 868 99 910 b 49 968 97 947 76 968 b 0 919 22 968 0 946 b 49 869 0 892 22 869 b 61 871 53 869 57 871 l 64 871 b 71 861 69 871 71 867 b 61 825 71 847 61 825 z m 194 822 b 226 917 226 868 226 910 b 176 968 225 947 204 968 b 128 919 150 968 128 946 b 176 869 128 892 150 869 b 189 871 181 869 185 871 l 192 871 b 199 861 197 871 199 867 b 189 825 199 847 189 825 z "},"„":{"ha":317,"x_min":0,"x_max":0,"o":"m 67 -47 b 99 47 99 -1 99 40 b 49 99 97 78 76 99 b 0 50 22 99 0 76 b 49 0 0 22 22 0 b 61 1 53 0 57 1 l 64 1 b 71 -8 69 1 71 -3 b 61 -44 71 -22 61 -44 z m 194 -47 b 226 47 226 -1 226 40 b 176 99 225 78 204 99 b 128 50 150 99 128 76 b 176 0 128 22 150 0 b 189 1 181 0 185 1 l 192 1 b 199 -8 197 1 199 -3 b 189 -44 199 -22 189 -44 z "},"†":{"ha":601,"x_min":0,"x_max":0,"o":"m 513 667 l 274 667 l 274 968 l 238 968 l 238 667 l 0 667 l 0 631 l 238 631 l 238 0 l 274 0 l 274 631 l 513 631 z "},"•":{"ha":186,"x_min":0,"x_max":0,"o":"m 97 485 b 49 533 97 511 76 533 b 0 485 22 533 0 511 b 49 435 0 457 22 435 b 97 485 76 435 97 457 z "},"…":{"ha":558,"x_min":0,"x_max":0,"o":"m 0 50 b 49 0 0 22 22 0 b 97 50 76 0 97 22 b 49 99 97 76 76 99 b 0 50 22 99 0 76 z m 186 50 b 235 0 186 22 208 0 b 283 50 263 0 283 22 b 235 99 283 76 263 99 b 186 50 208 99 186 76 z m 372 50 b 421 0 372 22 394 0 b 469 50 449 0 469 22 b 421 99 469 76 449 99 b 372 50 394 99 372 76 z "},"€":{"ha":1099,"x_min":0,"x_max":0,"o":"m 606 958 b 932 736 839 958 932 736 l 1008 767 b 615 968 1008 767 878 968 b 136 551 371 968 168 786 l 0 551 l 0 542 l 135 542 b 131 485 132 522 131 504 b 135 428 131 465 132 446 l 0 428 l 0 418 l 136 418 b 615 0 168 182 371 0 b 993 181 858 0 993 181 l 982 192 b 668 36 982 192 871 36 b 247 418 463 36 283 186 l 381 418 l 381 428 l 246 428 b 240 503 243 451 240 476 b 243 542 240 515 242 529 l 381 542 l 381 551 l 243 551 b 606 958 265 774 433 958 z "},"−":{"ha":393,"x_min":0,"x_max":0,"o":"m 0 467 l 303 467 l 303 503 l 0 503 z "},"Œ":{"ha":1275,"x_min":0,"x_max":0,"o":"m 1140 0 l 1188 149 b 908 10 1188 149 1065 10 l 642 10 l 642 479 l 932 479 b 1025 401 1010 479 1010 440 l 1031 401 l 1031 568 l 1025 568 b 932 489 1010 528 1010 489 l 642 489 l 642 958 l 914 958 b 1168 850 1049 958 1168 850 l 1140 968 l 483 968 b 0 485 217 968 0 751 b 483 0 0 217 217 0 z m 469 958 b 532 869 500 958 532 947 l 532 100 b 485 11 532 22 508 11 b 110 503 288 21 110 235 b 469 958 110 750 261 958 z "},"œ":{"ha":1218,"x_min":0,"x_max":0,"o":"m 321 10 b 167 101 264 10 213 40 b 99 325 121 161 99 236 b 157 529 99 403 118 471 b 304 615 196 586 244 615 b 458 525 361 615 413 585 b 526 299 504 464 526 389 b 468 96 526 221 507 153 b 321 10 429 39 381 10 z m 635 239 b 625 325 628 265 625 294 b 683 529 625 403 644 471 b 831 615 722 586 771 615 b 958 557 876 615 919 596 b 1042 401 996 517 1024 465 z m 576 144 b 619 92 588 125 603 108 b 839 0 679 31 753 0 b 967 25 889 0 932 8 b 1053 83 1001 42 1031 61 b 1103 143 1075 106 1092 125 b 1121 176 1113 161 1119 172 l 1111 179 l 1111 178 b 1110 176 1110 178 1110 176 b 1099 156 1107 172 1104 165 b 1056 101 1089 140 1075 122 b 982 47 1036 81 1011 63 b 874 24 951 32 915 24 b 722 79 814 24 763 42 b 636 229 681 117 651 167 l 1043 392 l 1131 426 b 1017 571 1107 486 1068 533 b 839 625 965 607 906 625 b 619 533 753 625 679 594 b 576 481 603 517 588 500 b 533 533 564 500 550 517 b 313 625 472 594 399 625 b 92 533 226 625 153 594 b 0 313 31 472 0 399 b 92 92 0 226 31 153 b 313 0 153 31 226 0 b 533 92 399 0 472 31 b 576 144 550 108 564 125 z "},"Š":{"ha":854,"x_min":0,"x_max":0,"o":"m 758 233 b 110 803 758 511 110 536 b 315 960 110 897 215 960 b 642 753 499 960 642 753 l 738 850 b 344 968 738 850 547 968 b 0 735 190 968 0 921 b 649 165 0 456 647 440 b 443 10 649 72 543 10 b 117 215 267 10 117 215 l 21 119 b 414 0 21 119 211 0 b 758 233 568 0 758 49 z m 379 1046 l 325 1079 l 289 1079 l 356 994 l 403 994 l 469 1079 l 433 1079 z "},"š":{"ha":585,"x_min":0,"x_max":0,"o":"m 94 518 b 204 615 94 578 139 615 b 414 486 322 615 414 486 l 476 547 b 222 625 476 547 354 625 b 0 474 124 625 0 593 b 396 107 0 294 396 261 b 286 10 396 46 350 10 b 76 139 172 10 76 139 l 14 76 b 268 0 14 76 136 0 b 489 150 367 0 489 31 b 94 518 489 331 94 363 z m 243 714 l 189 747 l 153 747 l 219 663 l 267 663 l 333 747 l 297 747 z "},"":{"ha":1351,"x_min":0,"x_max":0,"o":"m 949 624 b 778 547 853 624 796 569 b 681 418 744 508 693 435 b 497 182 619 335 558 251 l 497 378 b 282 625 497 550 388 625 b 64 553 228 625 64 553 l 126 490 b 279 615 126 490 194 615 b 397 431 343 615 390 561 b 0 160 303 324 0 336 b 201 0 0 58 106 0 b 399 76 274 0 338 29 b 497 169 399 76 449 113 b 681 404 557 236 617 318 l 681 99 b 632 6 681 21 671 22 l 632 0 l 778 0 l 778 58 b 949 0 797 43 860 0 b 1261 311 1121 0 1261 139 b 949 624 1261 485 1121 624 z m 399 86 b 233 17 344 43 289 17 b 99 178 165 17 99 76 b 235 333 99 257 161 306 b 399 421 290 356 353 375 z m 951 10 b 778 100 876 10 815 35 l 778 535 b 940 614 796 557 853 614 b 1163 299 1056 614 1163 478 b 958 10 1163 144 1075 10 z m 681 449 b 778 579 704 486 758 558 l 778 935 b 757 968 778 944 775 968 b 642 932 739 968 642 932 b 681 844 643 931 681 919 z m 497 140 b 399 49 485 126 450 86 l 399 33 b 419 0 399 24 401 0 b 535 36 438 0 535 36 b 497 124 533 38 497 49 z "},"":{"ha":1310,"x_min":0,"x_max":0,"o":"m 679 433 b 776 563 703 469 757 540 l 776 935 b 756 968 776 944 774 968 b 640 932 738 968 640 932 b 679 844 642 931 679 919 z m 496 135 b 399 46 485 121 449 85 l 399 33 b 419 0 399 24 401 0 b 535 36 436 0 535 36 b 496 125 533 39 496 50 z m 1171 378 b 949 625 1171 563 1061 625 b 776 532 851 625 778 533 b 679 403 743 490 692 421 b 496 175 618 322 557 242 l 496 378 b 281 625 496 551 388 625 b 64 553 228 625 64 553 l 126 490 b 279 615 126 490 194 615 b 397 432 343 615 390 561 b 0 160 303 324 0 336 b 201 0 0 58 106 0 b 399 74 272 0 338 28 b 496 163 399 74 449 110 b 679 389 557 226 615 306 l 679 100 b 631 7 679 22 669 22 l 631 0 l 825 0 l 825 7 b 776 100 785 22 776 21 l 776 518 b 950 615 778 519 850 615 b 1074 394 1032 615 1074 550 l 1074 100 b 1025 7 1074 22 1065 22 l 1025 0 l 1219 0 l 1219 7 b 1171 100 1181 22 1171 21 z m 399 83 b 233 17 344 43 289 17 b 99 178 165 17 99 76 b 235 335 99 257 161 306 b 397 421 290 356 353 375 b 399 394 399 413 399 403 z "},"":{"ha":1706,"x_min":0,"x_max":0,"o":"m 1567 378 b 1344 625 1567 563 1456 625 b 1149 504 1239 625 1158 518 b 950 625 1111 593 1031 625 b 778 532 853 625 778 532 b 679 403 743 490 692 421 b 497 175 618 322 558 242 l 497 378 b 282 625 497 550 388 625 b 65 553 228 625 65 553 l 126 490 b 281 615 126 490 194 615 b 397 431 343 615 390 561 b 0 160 303 324 0 336 b 201 0 0 58 107 0 b 399 74 274 0 338 28 b 497 163 399 74 450 110 b 679 389 557 226 617 306 l 679 99 b 632 6 679 21 671 22 l 632 0 l 825 0 l 825 6 b 778 99 786 22 778 21 l 778 518 b 951 615 778 518 850 615 b 1075 394 1032 615 1075 550 l 1075 99 b 1026 6 1075 21 1065 22 l 1026 0 l 1221 0 l 1221 6 b 1172 99 1181 22 1172 21 l 1172 378 b 1153 494 1172 424 1165 463 b 1346 615 1168 515 1244 615 b 1469 394 1426 615 1469 550 l 1469 99 b 1421 6 1469 21 1460 22 l 1421 0 l 1615 0 l 1615 6 b 1567 99 1575 22 1567 21 z m 399 83 b 233 17 344 42 290 17 b 99 178 165 17 99 76 b 235 333 99 257 161 306 b 399 421 290 356 353 375 z m 679 433 b 778 563 704 469 760 542 l 778 593 b 757 625 778 601 775 625 b 640 589 739 625 640 589 b 679 501 643 588 679 576 z m 497 133 b 399 46 485 121 450 85 l 399 33 b 419 0 399 24 401 0 b 535 36 438 0 535 36 b 497 124 533 38 497 49 z "},"":{"ha":1308,"x_min":0,"x_max":0,"o":"m 497 133 b 399 46 485 121 450 85 l 399 33 b 419 0 399 24 401 0 b 535 36 438 0 535 36 b 497 124 533 38 497 49 z m 679 433 b 778 561 704 471 761 540 l 778 593 b 757 625 778 601 775 625 b 642 589 739 625 642 589 b 679 501 643 588 679 576 z m 1172 378 b 950 625 1172 563 1061 625 b 778 532 853 625 778 532 b 679 403 778 532 693 421 b 497 175 619 322 558 242 l 497 378 b 282 625 497 550 388 625 b 65 553 228 625 65 553 l 126 490 b 281 615 126 490 194 615 b 397 431 343 615 390 561 b 0 160 303 324 0 336 b 201 0 0 58 107 0 b 399 74 274 0 338 28 b 497 163 399 74 450 110 b 679 389 557 226 617 306 l 679 99 b 632 6 679 21 671 22 l 632 0 l 825 0 l 825 6 b 778 99 786 22 778 21 l 778 518 b 951 615 778 518 851 615 b 1075 394 1033 615 1075 550 l 1075 99 b 1026 6 1075 21 1067 22 l 1026 0 l 1221 0 l 1221 6 b 1172 99 1181 22 1172 21 z m 399 83 b 233 17 344 42 290 17 b 99 178 165 17 99 76 b 235 333 99 257 161 306 b 399 421 290 356 353 375 z "},"":{"ha":1328,"x_min":0,"x_max":0,"o":"m 497 153 b 399 53 485 138 447 93 l 399 33 b 419 0 399 24 401 0 b 535 36 438 0 535 36 b 497 124 533 38 497 49 z m 660 449 b 758 579 689 497 742 560 l 758 593 b 738 625 758 601 756 625 b 622 589 719 625 622 589 b 660 501 624 588 660 576 z m 928 624 b 758 549 833 624 776 571 b 660 417 718 503 672 435 b 497 196 606 340 551 263 l 497 378 b 282 625 497 550 388 625 b 65 553 228 625 65 553 l 126 490 b 281 615 126 490 194 615 b 397 431 343 615 390 561 b 0 160 303 324 0 336 b 201 0 0 58 106 0 b 399 81 275 0 339 31 b 497 182 399 81 449 125 b 660 403 550 246 603 322 l 660 -243 b 613 -336 660 -321 651 -321 l 613 -342 l 806 -342 l 806 -336 b 758 -243 767 -321 758 -321 l 758 58 b 928 -1 778 42 840 -1 b 1240 311 1100 -1 1240 139 b 928 624 1240 485 1100 624 z m 399 93 b 233 17 346 46 290 17 b 99 178 165 17 99 76 b 235 333 99 257 161 306 b 399 421 290 356 353 375 z m 936 8 b 758 99 858 8 797 33 l 758 535 b 919 614 778 558 833 614 b 1142 299 1035 614 1142 478 b 936 8 1142 143 1054 8 z "},"":{"ha":1260,"x_min":0,"x_max":0,"o":"m 679 321 b 776 439 711 363 761 421 l 776 593 b 756 625 776 601 774 625 b 640 589 738 625 640 589 b 679 501 642 588 679 576 z m 1040 625 b 776 408 951 625 776 408 b 679 292 735 358 692 307 b 496 119 618 224 557 165 l 496 378 b 281 625 496 550 388 625 b 64 553 228 625 64 553 l 126 490 b 279 615 126 490 194 615 b 397 431 342 615 390 561 b 0 160 303 324 0 336 b 201 0 0 58 106 0 b 399 49 267 0 332 17 b 497 108 399 49 447 71 b 679 276 556 151 615 207 l 679 99 b 631 6 679 21 669 22 l 631 0 l 825 0 l 825 6 b 776 99 785 22 776 21 l 776 393 b 982 560 776 393 904 560 b 1103 501 1038 560 1103 501 l 1172 571 b 1040 625 1172 571 1117 625 z m 399 58 b 233 17 343 32 289 17 b 99 178 165 17 99 76 b 233 333 99 257 161 306 b 397 421 290 356 353 375 b 399 394 399 413 399 403 z m 497 81 b 399 21 489 75 458 53 l 399 19 b 418 0 399 19 403 0 b 535 36 436 0 535 36 b 497 81 533 38 504 43 z "},"":{"ha":1372,"x_min":0,"x_max":0,"o":"m 700 413 b 799 581 726 472 765 539 l 799 935 b 778 968 799 944 796 968 b 661 932 760 968 661 932 b 700 844 664 931 700 919 z m 969 624 b 799 547 874 624 817 569 b 700 374 764 504 725 428 b 346 24 624 211 535 24 b 99 325 199 24 99 149 b 304 615 99 482 185 615 b 492 465 379 615 451 557 l 567 496 b 313 625 510 574 417 625 b 0 313 140 625 0 486 b 313 0 0 140 140 0 b 700 353 531 0 621 185 l 700 99 b 653 6 700 21 692 22 l 653 0 l 799 0 l 799 58 b 969 -1 818 43 881 -1 b 1282 311 1142 -1 1282 139 b 969 624 1282 485 1142 624 z m 978 8 b 799 100 899 8 836 33 l 799 533 b 960 614 800 535 854 614 b 1183 299 1075 614 1183 478 b 978 8 1183 143 1094 8 z "},"":{"ha":1329,"x_min":0,"x_max":0,"o":"m 1192 378 b 969 625 1192 563 1081 625 b 796 532 872 625 797 532 b 699 357 763 489 724 411 b 346 24 624 200 535 24 b 97 325 199 24 97 149 b 303 615 97 482 185 615 b 492 465 379 615 451 557 l 565 496 b 313 625 508 574 417 625 b 0 313 139 625 0 486 b 313 0 0 140 139 0 b 699 336 529 0 622 176 l 699 99 b 650 6 699 21 690 22 l 650 0 l 844 0 l 844 6 b 796 99 806 22 796 21 l 796 518 b 969 615 797 518 869 615 b 1093 394 1051 615 1093 550 l 1093 99 b 1046 6 1093 21 1085 22 l 1046 0 l 1239 0 l 1239 6 b 1192 99 1200 22 1192 21 z m 699 396 b 796 565 724 456 764 524 l 796 935 b 776 968 796 944 794 968 b 660 932 758 968 660 932 b 699 844 661 931 699 919 z "},"":{"ha":1725,"x_min":0,"x_max":0,"o":"m 699 396 b 797 564 724 456 764 524 l 797 593 b 776 625 797 601 794 625 b 661 589 758 625 661 589 b 699 501 663 588 699 576 z m 1586 378 b 1364 625 1586 563 1475 625 b 1168 504 1260 625 1179 518 b 969 625 1131 593 1050 625 b 797 532 872 625 797 532 b 699 357 763 489 724 411 b 346 24 624 200 536 24 b 99 325 199 24 99 149 b 304 615 99 482 185 615 b 492 465 379 615 451 557 l 565 496 b 313 625 510 574 417 625 b 0 313 140 625 0 486 b 313 0 0 140 140 0 b 699 336 529 0 622 176 l 699 99 b 651 6 699 21 690 22 l 651 0 l 844 0 l 844 6 b 797 99 806 22 797 21 l 797 518 b 971 615 797 518 871 615 b 1094 394 1053 615 1094 550 l 1094 99 b 1046 6 1094 21 1086 22 l 1046 0 l 1240 0 l 1240 6 b 1192 99 1200 22 1192 21 l 1192 378 b 1172 494 1192 424 1185 463 b 1365 615 1188 515 1264 615 b 1489 394 1447 615 1489 550 l 1489 99 b 1440 6 1489 21 1481 22 l 1440 0 l 1635 0 l 1635 6 b 1586 99 1594 22 1586 21 z "},"":{"ha":1329,"x_min":0,"x_max":0,"o":"m 699 396 b 797 564 724 456 764 524 l 797 593 b 776 625 797 601 794 625 b 660 589 758 625 660 589 b 699 501 663 588 699 576 z m 1192 378 b 969 625 1192 563 1081 625 b 797 532 872 625 797 532 b 699 357 763 489 724 411 b 346 24 624 200 536 24 b 99 325 199 24 99 149 b 303 615 99 482 185 615 b 492 465 379 615 451 557 l 565 496 b 313 625 508 574 417 625 b 0 313 139 625 0 486 b 313 0 0 140 139 0 b 699 336 529 0 622 176 l 699 99 b 651 6 699 21 690 22 l 651 0 l 844 0 l 844 6 b 797 99 806 22 797 21 l 797 518 b 971 615 797 518 869 615 b 1094 394 1051 615 1094 550 l 1094 99 b 1046 6 1094 21 1085 22 l 1046 0 l 1240 0 l 1240 6 b 1192 99 1200 22 1192 21 z "},"":{"ha":1372,"x_min":0,"x_max":0,"o":"m 701 415 b 800 582 726 475 767 540 l 800 593 b 779 625 800 601 797 625 b 664 589 761 625 664 589 b 701 501 665 588 701 576 z m 969 624 b 800 549 875 624 818 571 b 701 376 765 506 726 431 b 347 24 624 214 536 24 b 99 325 199 24 99 149 b 304 615 99 482 185 615 b 493 465 379 615 451 557 l 567 496 b 313 625 510 574 417 625 b 0 313 140 625 0 486 b 313 0 0 140 140 0 b 701 356 532 0 622 188 l 701 -243 b 654 -336 701 -321 693 -321 l 654 -342 l 847 -342 l 847 -336 b 800 -243 808 -321 800 -321 l 800 58 b 969 -1 821 42 882 -1 b 1282 311 1142 -1 1282 139 b 969 624 1282 485 1142 624 z m 978 8 b 800 99 900 8 839 33 l 800 535 b 961 614 819 558 875 614 b 1183 299 1076 614 1183 478 b 978 8 1183 143 1096 8 z "},"":{"ha":1278,"x_min":0,"x_max":0,"o":"m 692 313 b 790 454 722 358 757 414 l 790 592 b 769 624 790 600 788 624 b 654 588 751 624 654 588 b 692 500 656 586 692 575 z m 1053 625 b 790 408 965 625 790 408 b 692 264 758 365 728 319 b 347 24 614 139 507 24 b 99 325 199 24 99 149 b 304 615 99 482 185 615 b 493 465 379 615 451 557 l 567 496 b 313 625 510 574 418 625 b 0 313 140 625 0 486 b 313 0 0 140 140 0 b 692 247 504 0 614 122 l 692 99 b 644 6 692 21 683 22 l 644 0 l 838 0 l 838 6 b 790 99 799 22 790 21 l 790 393 b 996 560 790 393 918 560 b 1117 501 1051 560 1117 501 l 1186 571 b 1053 625 1186 571 1131 625 z "},"":{"ha":1394,"x_min":0,"x_max":0,"o":"m 994 624 b 824 547 899 624 843 569 b 726 390 794 513 754 444 b 347 22 632 214 551 22 b 110 228 228 22 139 104 l 604 426 b 313 624 558 542 446 624 b 0 311 140 624 0 483 b 313 -1 0 139 140 -1 b 726 371 546 -1 631 188 l 726 100 b 678 6 726 22 718 22 l 678 0 l 824 0 l 824 58 b 994 -1 844 43 907 -1 b 1307 311 1168 -1 1307 139 b 994 624 1307 485 1168 624 z m 99 324 b 304 614 99 481 185 614 b 515 400 396 614 483 526 l 108 238 b 99 324 101 264 99 293 z m 1003 8 b 824 100 925 8 863 35 l 824 535 b 986 614 843 557 899 614 b 1208 299 1101 614 1208 478 b 1003 8 1208 143 1121 8 z m 726 428 b 824 579 754 483 792 539 l 824 935 b 804 968 824 944 821 968 b 688 932 786 968 688 932 b 726 844 689 931 726 919 z "},"":{"ha":1358,"x_min":0,"x_max":0,"o":"m 728 414 b 826 563 757 469 793 522 l 826 935 b 806 968 826 944 824 968 b 690 932 788 968 690 932 b 728 844 692 931 728 919 z m 1222 376 b 999 625 1222 563 1111 625 b 826 531 901 625 828 532 b 728 378 801 500 757 432 b 347 21 631 203 550 21 b 110 226 228 21 139 103 l 604 425 b 314 622 558 540 446 622 b 0 310 140 622 0 483 b 314 -3 0 138 140 -3 b 728 360 547 -3 632 182 l 728 99 b 681 4 728 21 719 21 l 681 -1 l 874 -1 l 874 4 b 826 99 835 21 826 19 l 826 517 b 1000 615 828 518 900 615 b 1124 393 1082 615 1124 550 l 1124 99 b 1076 4 1124 21 1115 21 l 1076 -1 l 1269 -1 l 1269 4 b 1222 99 1231 21 1222 19 z m 99 322 b 304 613 99 479 186 613 b 515 400 397 613 483 526 l 108 236 b 99 322 103 263 99 292 z "},"":{"ha":1749,"x_min":0,"x_max":0,"o":"m 1614 376 b 1392 624 1614 561 1503 624 b 1196 504 1286 624 1206 518 b 997 624 1157 592 1078 624 b 824 531 899 624 825 531 b 726 376 800 500 754 431 b 346 21 628 201 549 21 b 110 226 226 21 139 103 l 603 425 b 313 622 557 540 444 622 b 0 310 140 622 0 482 b 313 -3 0 138 140 -3 b 726 358 546 -3 629 181 l 726 99 b 678 4 726 21 718 21 l 678 -1 l 872 -1 l 872 4 b 824 99 832 21 824 19 l 824 517 b 997 614 825 517 897 614 b 1121 393 1079 614 1121 549 l 1121 99 b 1074 4 1121 21 1113 21 l 1074 -1 l 1267 -1 l 1267 4 b 1219 99 1228 21 1219 19 l 1219 376 b 1200 493 1219 422 1213 461 b 1392 614 1214 514 1292 614 b 1515 393 1474 614 1515 549 l 1515 99 b 1468 4 1515 21 1507 21 l 1468 -1 l 1661 -1 l 1661 4 b 1614 99 1622 21 1614 19 z m 99 322 b 304 613 99 479 185 613 b 514 399 396 613 482 525 l 107 236 b 99 322 101 263 99 292 z m 726 413 b 824 561 756 467 792 521 l 824 592 b 804 624 824 600 821 624 b 688 588 786 624 688 588 b 726 500 689 586 726 575 z "},"":{"ha":1354,"x_min":0,"x_max":0,"o":"m 726 413 b 824 561 756 467 792 521 l 824 592 b 804 624 824 600 821 624 b 688 588 786 624 688 588 b 726 500 689 586 726 575 z m 1219 376 b 997 624 1219 561 1108 624 b 824 531 899 624 825 531 b 726 376 800 500 754 431 b 347 22 629 201 549 22 b 110 228 228 22 139 104 l 604 426 b 313 624 558 542 446 624 b 0 311 140 624 0 483 b 313 -1 0 139 140 -1 b 726 358 546 -1 629 181 l 726 99 b 678 4 726 21 718 21 l 678 -1 l 872 -1 l 872 4 b 824 99 832 21 824 19 l 824 517 b 997 614 825 517 897 614 b 1121 393 1079 614 1121 549 l 1121 99 b 1074 4 1121 21 1113 21 l 1074 -1 l 1267 -1 l 1267 4 b 1219 99 1228 21 1219 19 z m 99 324 b 304 614 99 481 185 614 b 515 400 396 614 483 526 l 108 238 b 99 324 101 264 99 293 z "},"":{"ha":1397,"x_min":0,"x_max":0,"o":"m 725 428 b 824 581 753 482 790 540 l 824 592 b 803 624 824 600 821 624 b 686 588 785 624 686 588 b 725 500 689 586 725 575 z m 993 622 b 824 547 899 622 842 569 b 725 390 793 511 753 444 b 346 22 631 214 550 22 b 110 228 228 22 139 104 l 603 426 b 313 624 557 542 444 624 b 0 311 140 624 0 485 b 313 -1 0 139 140 -1 b 725 369 544 -1 629 188 l 725 -244 b 678 -337 725 -322 717 -322 l 678 -343 l 871 -343 l 871 -337 b 824 -244 832 -322 824 -322 l 824 57 b 993 -3 843 40 906 -3 b 1306 310 1165 -3 1306 138 b 993 622 1306 483 1165 622 z m 99 324 b 304 614 99 481 185 614 b 514 401 396 614 483 528 l 107 238 b 99 324 101 265 99 293 z m 1001 7 b 824 97 924 7 861 32 l 824 533 b 985 613 842 557 899 613 b 1207 297 1099 613 1207 476 b 1001 7 1207 142 1119 7 z "},"":{"ha":1311,"x_min":0,"x_max":0,"o":"m 726 310 b 825 438 761 358 792 399 l 825 592 b 804 624 825 600 822 624 b 689 588 786 624 689 588 b 726 500 690 586 726 575 z m 1088 624 b 825 407 1000 624 825 407 b 726 279 800 376 760 322 b 346 22 621 135 535 22 b 110 228 228 22 139 104 l 603 426 b 313 624 557 542 444 624 b 0 311 140 624 0 483 b 313 -1 0 139 140 -1 b 726 263 528 -1 619 117 l 726 99 b 679 4 726 21 718 21 l 679 -1 l 872 -1 l 872 4 b 825 99 833 21 825 19 l 825 392 b 1031 558 825 392 953 558 b 1150 500 1086 558 1150 500 l 1221 569 b 1088 624 1221 569 1165 624 z m 99 324 b 304 614 99 481 185 614 b 514 400 396 614 483 526 l 107 238 b 99 324 101 264 99 293 z "},"":{"ha":571,"x_min":0,"x_max":0,"o":"m 435 933 b 414 967 435 943 432 967 b 299 931 396 967 299 931 b 336 843 300 929 336 918 l 336 99 b 289 6 336 21 328 21 l 289 0 l 482 0 l 482 6 b 435 99 443 21 435 21 z m 144 864 b 125 897 144 874 143 897 b 8 861 107 897 8 861 b 47 774 11 860 47 849 l 47 99 b 0 6 47 21 39 21 l 0 0 l 193 0 l 193 6 b 144 99 154 21 144 21 z "},"":{"ha":1379,"x_min":0,"x_max":0,"o":"m 711 454 b 810 576 735 489 775 539 l 810 935 b 789 968 810 944 807 968 b 674 932 771 968 674 932 b 711 844 675 931 711 919 z m 981 624 b 810 547 885 624 828 569 b 711 424 774 508 732 453 b 529 182 654 344 593 257 l 529 592 b 508 624 529 600 526 624 b 393 588 490 624 393 588 b 432 500 394 586 432 575 l 432 83 b 258 10 376 39 319 10 b 136 231 178 10 136 75 l 136 592 b 115 624 136 600 133 624 b 0 588 97 624 0 588 b 38 500 1 586 38 575 l 38 247 b 260 0 38 63 149 0 b 432 72 319 0 376 28 b 529 169 432 72 481 113 b 711 408 593 243 653 329 l 711 100 b 664 7 711 22 703 22 l 664 1 l 810 1 l 810 60 b 981 0 829 43 892 0 b 1292 313 1153 0 1292 140 b 981 624 1292 485 1153 624 z m 989 10 b 810 100 910 10 847 35 l 810 535 b 971 614 828 557 885 614 b 1193 299 1086 614 1193 478 b 989 10 1193 143 1106 10 z m 529 140 b 432 46 517 126 478 82 l 432 33 b 451 0 432 24 433 0 b 568 36 469 0 568 36 b 529 124 565 38 529 49 z "},"":{"ha":1340,"x_min":0,"x_max":0,"o":"m 713 439 b 810 560 735 472 775 522 l 810 935 b 789 968 810 944 807 968 b 674 932 771 968 674 932 b 713 844 675 929 713 918 z m 1204 376 b 982 625 1204 563 1094 625 b 810 531 885 625 811 532 b 713 408 774 492 733 438 b 529 175 654 332 593 247 l 529 592 b 510 625 529 601 526 625 b 393 589 492 625 393 589 b 432 501 394 588 432 576 l 432 81 b 260 10 376 38 319 10 b 136 232 178 10 136 75 l 136 592 b 115 625 136 601 133 625 b 0 589 97 625 0 589 b 38 501 1 588 38 576 l 38 249 b 260 0 38 63 149 0 b 432 69 319 0 376 26 b 529 163 432 69 482 106 b 713 394 593 233 654 317 l 713 99 b 664 6 713 21 703 22 l 664 0 l 858 0 l 858 6 b 810 99 818 22 810 21 l 810 517 b 983 615 811 518 883 615 b 1107 393 1065 615 1107 550 l 1107 99 b 1058 6 1107 21 1099 22 l 1058 0 l 1253 0 l 1253 6 b 1204 99 1214 22 1204 21 z m 529 133 b 432 42 517 119 478 76 l 432 33 b 453 0 432 24 435 0 b 568 36 469 0 568 36 b 529 124 567 38 529 49 z "},"":{"ha":1733,"x_min":0,"x_max":0,"o":"m 713 438 b 811 560 736 472 775 522 l 811 592 b 790 625 811 601 808 625 b 675 589 772 625 675 589 b 713 501 676 588 713 576 z m 531 133 b 432 42 518 119 479 76 l 432 33 b 453 0 432 24 435 0 b 568 36 471 0 568 36 b 531 124 567 38 531 49 z m 1600 376 b 1378 625 1600 563 1489 625 b 1182 504 1272 625 1192 518 b 983 625 1144 592 1064 625 b 811 531 886 625 811 532 b 713 408 775 492 733 438 b 531 175 656 332 594 247 l 531 592 b 510 625 531 601 528 625 b 394 589 492 625 394 589 b 432 501 396 588 432 576 l 432 81 b 260 10 378 38 319 10 b 136 232 178 10 136 75 l 136 592 b 115 625 136 601 133 625 b 0 589 99 625 0 589 b 39 501 1 588 39 576 l 39 249 b 261 0 39 63 150 0 b 432 69 321 0 378 26 b 531 163 432 69 482 106 b 713 394 594 233 654 317 l 713 99 b 665 6 713 21 704 22 l 665 0 l 858 0 l 858 6 b 811 99 819 22 811 21 l 811 517 b 985 615 811 518 883 615 b 1108 393 1065 615 1108 550 l 1108 99 b 1060 6 1108 21 1099 22 l 1060 0 l 1254 0 l 1254 6 b 1206 99 1214 22 1206 21 l 1206 376 b 1186 494 1206 424 1199 463 b 1379 615 1201 515 1278 615 b 1501 393 1460 615 1501 550 l 1501 99 b 1454 6 1501 21 1493 22 l 1454 0 l 1647 0 l 1647 6 b 1600 99 1608 22 1600 21 z "},"":{"ha":1342,"x_min":0,"x_max":0,"o":"m 531 133 b 432 42 518 119 479 76 l 432 33 b 453 0 432 24 435 0 b 568 36 471 0 568 36 b 531 124 567 38 531 49 z m 713 440 b 811 561 736 474 775 524 l 811 592 b 790 625 811 601 808 625 b 675 589 772 625 675 589 b 713 501 676 588 713 576 z m 1206 376 b 983 625 1206 563 1094 625 b 811 531 886 625 811 532 b 713 408 775 492 733 439 b 531 175 656 332 594 247 l 531 592 b 510 625 531 601 528 625 b 394 589 492 625 394 589 b 432 501 396 588 432 576 l 432 81 b 260 10 376 38 319 10 b 136 232 178 10 136 75 l 136 592 b 115 625 136 601 133 625 b 0 589 97 625 0 589 b 39 501 1 588 39 576 l 39 249 b 261 0 39 63 149 0 b 432 69 321 0 378 26 b 531 163 432 69 482 106 b 713 394 594 233 654 318 l 713 99 b 665 6 713 21 704 22 l 665 0 l 858 0 l 858 6 b 811 99 819 22 811 21 l 811 517 b 985 615 811 518 883 615 b 1108 393 1065 615 1108 550 l 1108 99 b 1060 6 1108 21 1099 22 l 1060 0 l 1254 0 l 1254 6 b 1206 99 1214 22 1206 21 z "},"":{"ha":1364,"x_min":0,"x_max":0,"o":"m 696 453 b 794 578 719 489 760 540 l 794 592 b 774 625 794 601 792 625 b 658 589 756 625 658 589 b 696 501 660 588 696 576 z m 964 624 b 794 549 869 624 814 569 b 696 422 758 508 718 451 b 531 192 643 347 588 264 l 531 592 b 510 625 531 601 528 625 b 393 589 492 625 393 589 b 432 501 396 588 432 576 l 432 88 b 260 10 378 40 321 10 b 136 232 178 10 136 75 l 136 592 b 115 625 136 601 133 625 b 0 589 97 625 0 589 b 38 501 1 588 38 576 l 38 249 b 260 0 38 63 149 0 b 432 75 321 0 378 29 b 531 178 432 75 482 121 b 696 407 588 249 643 331 l 696 -243 b 649 -336 696 -321 688 -321 l 649 -343 l 842 -343 l 842 -336 b 794 -243 803 -321 794 -322 l 794 58 b 964 -1 815 42 878 -1 b 1276 311 1138 -1 1276 139 b 964 624 1276 483 1138 624 z m 972 8 b 794 99 894 8 833 33 l 794 535 b 956 614 814 557 869 614 b 1178 297 1071 614 1178 478 b 972 8 1178 142 1090 8 z m 531 149 b 432 47 517 133 478 88 l 432 33 b 453 0 432 24 435 0 b 568 36 471 0 568 36 b 531 124 567 38 531 49 z "},"":{"ha":1293,"x_min":0,"x_max":0,"o":"m 713 325 b 810 438 739 357 775 399 l 810 592 b 790 625 810 601 808 625 b 674 589 772 625 674 589 b 713 501 675 588 713 576 z m 432 22 l 432 19 b 453 0 432 18 435 0 b 568 36 471 0 568 36 b 532 88 567 38 538 47 b 432 22 532 88 482 51 z m 1074 625 b 810 408 985 625 810 408 b 713 296 775 367 739 326 b 531 125 658 236 596 175 l 531 592 b 510 625 531 601 528 625 b 394 589 492 625 394 589 b 432 501 396 588 432 576 l 432 61 b 260 10 375 29 317 10 b 136 232 178 10 136 75 l 136 592 b 115 625 136 601 133 625 b 0 589 97 625 0 589 b 38 501 1 588 38 576 l 38 249 b 260 0 38 63 149 0 b 432 49 318 0 375 18 b 531 113 432 49 483 76 b 713 282 594 161 656 221 l 713 99 b 664 6 713 21 704 22 l 664 0 l 858 0 l 858 6 b 810 99 819 22 810 21 l 810 393 b 1015 558 810 393 939 558 b 1136 501 1072 558 1136 501 l 1207 571 b 1074 625 1207 571 1151 625 z "},"":{"ha":836,"x_min":0,"x_max":0,"o":"m 614 950 b 682 703 614 950 688 851 b 636 521 681 646 660 575 l 488 149 l 190 900 b 186 915 188 906 186 911 b 228 960 186 938 210 953 l 228 968 l 0 968 l 0 960 l 1 960 b 85 865 7 960 47 956 b 429 0 176 638 354 189 l 439 0 l 667 569 b 747 885 729 704 747 807 b 700 1058 747 1006 700 1058 z "},"":{"ha":1256,"x_min":0,"x_max":0,"o":"m 1033 950 b 1100 703 1033 950 1104 850 b 1053 521 1099 646 1076 575 l 906 149 l 703 660 b 781 856 732 733 760 800 b 879 960 822 958 876 960 l 879 968 l 729 968 l 729 960 b 783 906 744 957 783 947 b 776 872 783 897 782 886 l 697 672 l 607 900 b 603 915 604 906 603 911 b 646 960 603 938 626 953 l 646 968 l 418 968 l 418 960 l 419 960 b 501 865 425 960 465 956 b 638 524 538 776 588 653 l 488 149 l 190 900 b 186 915 188 906 186 911 b 228 960 186 938 210 953 l 228 968 l 0 968 l 0 960 l 1 960 b 85 865 7 960 47 956 b 439 0 176 638 439 0 b 643 511 439 0 590 381 b 846 0 721 317 801 113 l 856 0 l 1083 569 b 1165 886 1146 704 1165 808 b 1118 1058 1165 1006 1118 1058 z "}}}
